<?xml version="1.0" encoding="UTF-8"?>
<svg width="236px" height="236px" viewBox="0 0 236 236" version="1.1" xmlns="http://www.w3.org/2000/svg" xmlns:xlink="http://www.w3.org/1999/xlink">
    <!-- Generator: Sketch 58 (84663) - https://sketch.com -->
    <title>check_icon</title>
    <desc>Created with Sketch.</desc>
    <g id="Page-1" stroke="none" stroke-width="1" fill="none" fill-rule="evenodd">
        <g id="play/ic_launcher_APP" transform="translate(-138.000000, -138.000000)">
            <g id="check_icon" transform="translate(138.000000, 138.000000)">
                <path d="M236,118 C236,183.17 183.17,236 118,236 C52.83,236 0,183.17 0,118 C0,52.83 52.83,0 118,0 C183.17,0 236,52.83 236,118" id="Fill-1" fill="#61C839"></path>
                <path d="M91.7383,159.3507 L160.5213,228.0987 C200.1463,212.7847 229.4353,176.7027 235.0283,133.1957 L174.1033,72.2907 L91.7383,159.3507 Z" id="Fill-3" fill="#53A82F"></path>
                <path d="M175.3971,72.5844 C171.0941,68.2814 162.6461,67.6264 158.4261,72.5844 C140.1261,94.0874 121.8251,115.5904 103.5251,137.0934 C103.4731,137.1544 103.4211,137.2154 103.3691,137.2774 L77.5731,111.4814 C66.6381,100.5464 49.6631,117.5124 60.6031,128.4524 C72.2571,140.1064 83.9121,151.7614 95.5661,163.4154 C99.8791,167.7284 108.3211,168.3684 112.5361,163.4154 C130.8371,141.9124 149.1371,120.4094 167.4381,98.9064 C170.0911,95.7894 172.7441,92.6724 175.3971,89.5554 C179.5951,84.6224 180.2391,77.4254 175.3971,72.5844" id="Fill-5" fill="#FFFFFF"></path>
            </g>
        </g>
    </g>
</svg>