<svg width="50" height="50" viewBox="0 0 50 50" fill="none" xmlns="http://www.w3.org/2000/svg">
<g clip-path="url(#clip0)">
<path d="M43.41 31.0034C41.9795 30.0301 40.1033 30.0301 38.661 31.0034C37.9574 30.5226 37.1366 30.2764 36.2923 30.2764C33.9471 30.2764 32.0592 32.176 32.0592 34.5095C32.0592 36.843 33.9471 38.7543 36.2923 38.7543C37.1366 38.7543 37.9574 38.5081 38.661 38.0273C40.5958 39.3406 43.2341 38.8247 44.5475 36.8899C45.8608 34.9551 45.3448 32.3167 43.41 31.0034ZM42.4602 35.7407C41.7918 36.5381 40.6075 36.6436 39.8101 35.9752C39.7163 35.9049 39.646 35.8228 39.5639 35.729C39.3411 35.4593 39.001 35.3069 38.661 35.3186C38.3092 35.3186 37.9809 35.471 37.7581 35.7407C37.4063 36.1746 36.8669 36.4326 36.304 36.4208C35.2604 36.4208 34.4044 35.5766 34.4044 34.5329C34.3927 33.4776 35.237 32.6333 36.2923 32.6333C36.8552 32.6333 37.3946 32.8913 37.7463 33.3251C38.1568 33.8294 38.8955 33.9115 39.3997 33.501C39.4584 33.4541 39.517 33.3955 39.5756 33.3251C40.244 32.5278 41.4283 32.4222 42.2257 33.0906C43.0231 33.759 43.1286 34.9433 42.4602 35.7407Z" fill="#0A5DA6"/>
<path d="M49.9531 21.0599C49.9531 20.9544 50 20.8371 50 20.7198C50 20.6026 49.9531 20.497 49.9531 20.3915V17.8821C49.9531 15.1265 47.69 12.922 44.9344 12.922H43.5038V11.5031C43.5038 8.74751 41.311 6.47266 38.5554 6.47266H4.9719C2.21628 6.47266 4.63184e-05 8.74751 4.63184e-05 11.5031V32.1176C-0.0116798 34.8498 2.20455 37.066 4.93673 37.0777C4.94845 37.0777 4.96018 37.0777 4.9719 37.0777H6.33213V38.4966C6.34385 41.2639 8.57181 43.5153 11.3392 43.5271H44.9344C47.7017 43.5036 49.9414 41.2639 49.9531 38.4966V26.5594C49.9531 26.4539 50 26.3366 50 26.2311C50 26.1256 49.9531 26.0083 49.9531 25.9028V21.0599ZM6.33213 17.8821V34.7325H4.9719C3.54132 34.7442 2.35699 33.5951 2.34526 32.1645C2.34526 32.1528 2.34526 32.141 2.34526 32.1293V11.5031C2.34526 10.0491 3.50614 8.81787 4.9719 8.81787H38.5671C40.0329 8.81787 41.1703 10.0491 41.1703 11.5031V12.922H11.3392C8.58354 12.922 6.33213 15.1265 6.33213 17.8821ZM47.6079 38.4966C47.5962 39.9741 46.4119 41.1701 44.9344 41.1818H11.3392C9.86168 41.1701 8.67734 39.9741 8.67734 38.4966V27.3451H47.6079V38.4966ZM47.6079 24.9999H8.67734V21.9511H47.6079V24.9999ZM47.6196 19.6059H47.6079H8.67734V17.8821C8.68907 16.4281 9.8734 15.2555 11.3392 15.2672H11.3509H44.9461C46.4119 15.2672 47.6196 16.4164 47.6196 17.8821V19.6059Z" fill="#0A5DA6"/>
</g>
<defs>
<clipPath id="clip0">
<rect width="50" height="50" fill="white"/>
</clipPath>
</defs>
</svg>
