<svg width="50" height="51" viewBox="0 0 50 51" xmlns="http://www.w3.org/2000/svg" xmlns:xlink="http://www.w3.org/1999/xlink" fill="none" overflow="hidden"><defs><clipPath id="clip0"><rect x="0" y="0" width="50" height="50" fill="#FFFFFF" transform="matrix(1 0 0 1 0 0.5)"/></clipPath></defs><g clip-path="url(#clip0)"><path d="M37.7627 30.2266C34.2875 30.2266 31.4602 33.0538 31.4602 36.5291 31.4602 40.0044 34.2875 42.8316 37.7627 42.8316 41.2386 42.8316 44.0653 40.0044 44.0653 36.5291 44.0653 33.0538 41.238 30.2266 37.7627 30.2266ZM37.7627 39.6804C36.0249 39.6804 34.6115 38.267 34.6115 36.5291 34.6115 34.7912 36.0249 33.3778 37.7627 33.3778 39.5006 33.3778 40.914 34.7912 40.914 36.5291 40.914 38.2671 39.5006 39.6804 37.7627 39.6804Z" fill="#A1A1A7"/><path d="M16.2288 30.2266C12.7535 30.2266 9.92627 33.0538 9.92627 36.5291 9.92627 40.0044 12.7535 42.8316 16.2288 42.8316 19.7041 42.8316 22.5314 40.0044 22.5314 36.5291 22.5314 33.0538 19.7041 30.2266 16.2288 30.2266ZM16.2288 39.6804C14.4909 39.6804 13.0775 38.267 13.0775 36.5291 13.0775 34.7912 14.4909 33.3778 16.2288 33.3778 17.9662 33.3778 19.3801 34.7912 19.3801 36.5291 19.3801 38.2671 17.9667 39.6804 16.2288 39.6804Z" fill="#A1A1A7"/><path d="M42.007 12.187C41.7391 11.655 41.1945 11.3193 40.5989 11.3193L32.3005 11.3193 32.3005 14.4706 39.6272 14.4706 43.9176 23.0042 46.7338 21.5882 42.007 12.187Z" fill="#A1A1A7"/><path d="M33.0358 35.0068 21.1135 35.0068 21.1135 38.1581 33.0358 38.1581 33.0358 35.0068Z" fill="#A1A1A7"/><path d="M11.502 35.0068 6.03994 35.0068C5.16963 35.0068 4.46436 35.7122 4.46436 36.5824 4.46436 37.4527 5.16973 38.158 6.03994 38.158L11.5021 38.158C12.3725 38.158 13.0777 37.4526 13.0777 36.5824 13.0777 35.7121 12.3724 35.0068 11.502 35.0068Z" fill="#A1A1A7"/><path d="M49.6691 25.3738 46.5699 21.3822C46.2722 20.9977 45.8126 20.7729 45.3257 20.7729L33.8761 20.7729 33.8761 9.74355C33.8761 8.87324 33.1707 8.16797 32.3005 8.16797L6.03994 8.16797C5.16963 8.16797 4.46436 8.87334 4.46436 9.74355 4.46436 10.6138 5.16973 11.3191 6.03994 11.3191L30.7248 11.3191 30.7248 22.3485C30.7248 23.2188 31.4302 23.9241 32.3004 23.9241L44.5541 23.9241 46.8487 26.88 46.8487 35.006 42.4895 35.006C41.6191 35.006 40.9139 35.7114 40.9139 36.5816 40.9139 37.4519 41.6192 38.1572 42.4895 38.1572L48.4243 38.1572C49.2946 38.1572 49.9999 37.4518 50 36.5816L50 26.3402C50 25.9904 49.8834 25.6501 49.6691 25.3738Z" fill="#A1A1A7"/><path d="M11.3973 27.0234 4.14932 27.0234C3.279 27.0234 2.57373 27.7288 2.57373 28.599 2.57373 29.4693 3.2791 30.1746 4.14932 30.1746L11.3972 30.1746C12.2675 30.1746 12.9728 29.4692 12.9728 28.599 12.9729 27.7288 12.2675 27.0234 11.3973 27.0234Z" fill="#A1A1A7"/><path d="M15.021 20.8252 1.57559 20.8252C0.705371 20.8252 0 21.5306 0 22.4009 0 23.2712 0.705371 23.9765 1.57559 23.9765L15.021 23.9765C15.8913 23.9765 16.5966 23.2711 16.5966 22.4009 16.5966 21.5307 15.8913 20.8252 15.021 20.8252Z" fill="#A1A1A7"/><path d="M17.5947 14.6279 4.14932 14.6279C3.279 14.6279 2.57373 15.3333 2.57373 16.2035 2.57373 17.0738 3.2791 17.7791 4.14932 17.7791L17.5947 17.7791C18.465 17.7791 19.1703 17.0737 19.1703 16.2035 19.1704 15.3333 18.465 14.6279 17.5947 14.6279Z" fill="#A1A1A7"/></g></svg>