<svg width="50" height="51" viewBox="0 0 50 51" fill="none" xmlns="http://www.w3.org/2000/svg">
<g clip-path="url(#clip0)">
<path d="M47.0703 22.4765V22.4727C47.0703 10.3568 37.1696 0.5 25 0.5C12.8304 0.5 2.92969 10.3568 2.92969 22.4727V22.4765C1.15204 23.8143 0 25.941 0 28.332V34.3867C0 38.4253 3.2856 41.7109 7.32422 41.7109H10.2539C11.063 41.7109 11.7188 41.0552 11.7188 40.2461V22.4727C11.7188 15.2034 17.6765 9.28906 25 9.28906C32.3231 9.28906 38.2812 15.2034 38.2812 22.4727V40.2461C38.2812 41.0552 38.937 41.7109 39.7461 41.7109H41.2109V43.1758C41.2109 43.9834 40.5537 44.6406 39.7461 44.6406H32.1701C31.5651 42.9358 29.937 41.7109 28.0273 41.7109H22.0703C19.6472 41.7109 17.6758 43.6824 17.6758 46.1055C17.6758 48.5286 19.6472 50.5 22.0703 50.5H28.0273C29.937 50.5 31.5651 49.2751 32.1701 47.5703H39.7461C42.1692 47.5703 44.1406 45.5989 44.1406 43.1758V41.5637C47.4796 40.8831 50 37.9237 50 34.3867V28.332C50 25.941 48.848 23.8143 47.0703 22.4765ZM28.0273 47.5703H22.0703C21.2627 47.5703 20.6055 46.913 20.6055 46.1055C20.6055 45.2979 21.2627 44.6406 22.0703 44.6406H28.0273C28.8349 44.6406 29.4922 45.2979 29.4922 46.1055C29.4922 46.913 28.8349 47.5703 28.0273 47.5703ZM8.78906 38.7812H7.32422C4.90112 38.7812 2.92969 36.8098 2.92969 34.3867V28.332C2.92969 25.9089 4.90112 23.9375 7.32422 23.9375H8.78906V38.7812ZM25 6.35938C16.4825 6.35938 9.59206 12.9241 8.85658 21.0078H7.32422C6.83899 21.0078 6.36559 21.0563 5.90668 21.1467C6.59332 11.2628 14.8937 3.42969 25 3.42969C35.1063 3.42969 43.4067 11.2628 44.0933 21.1467C43.6344 21.0563 43.161 21.0078 42.6758 21.0078H41.1434C40.4076 12.9203 33.5136 6.35938 25 6.35938ZM47.0703 34.3867C47.0703 36.8098 45.0989 38.7812 42.6758 38.7812H41.2109V23.9375H42.6758C45.0989 23.9375 47.0703 25.9089 47.0703 28.332V34.3867Z" fill="#0A5DA6"/>
</g>
<defs>
<clipPath id="clip0">
<rect width="50" height="50" fill="white" transform="translate(0 0.5)"/>
</clipPath>
</defs>
</svg>
