<svg width="50" height="51" viewBox="0 0 50 51" xmlns="http://www.w3.org/2000/svg" xmlns:xlink="http://www.w3.org/1999/xlink" fill="none" overflow="hidden"><defs><clipPath id="clip0"><rect x="0" y="0" width="50" height="50" fill="#FFFFFF" transform="matrix(1 0 0 1 0 0.5)"/></clipPath></defs><g clip-path="url(#clip0)"><path d="M47.0703 22.4765 47.0703 22.4727C47.0703 10.3568 37.1696 0.5 25 0.5 12.8304 0.5 2.92969 10.3568 2.92969 22.4727L2.92969 22.4765C1.15204 23.8143 0 25.941 0 28.332L0 34.3867C0 38.4253 3.2856 41.7109 7.32422 41.7109L10.2539 41.7109C11.063 41.7109 11.7188 41.0552 11.7188 40.2461L11.7188 22.4727C11.7188 15.2034 17.6765 9.28906 25 9.28906 32.3231 9.28906 38.2812 15.2034 38.2812 22.4727L38.2812 40.2461C38.2812 41.0552 38.937 41.7109 39.7461 41.7109L41.2109 41.7109 41.2109 43.1758C41.2109 43.9834 40.5537 44.6406 39.7461 44.6406L32.1701 44.6406C31.5651 42.9358 29.937 41.7109 28.0273 41.7109L22.0703 41.7109C19.6472 41.7109 17.6758 43.6824 17.6758 46.1055 17.6758 48.5286 19.6472 50.5 22.0703 50.5L28.0273 50.5C29.937 50.5 31.5651 49.2751 32.1701 47.5703L39.7461 47.5703C42.1692 47.5703 44.1406 45.5989 44.1406 43.1758L44.1406 41.5637C47.4796 40.8831 50 37.9237 50 34.3867L50 28.332C50 25.941 48.848 23.8143 47.0703 22.4765ZM28.0273 47.5703 22.0703 47.5703C21.2627 47.5703 20.6055 46.913 20.6055 46.1055 20.6055 45.2979 21.2627 44.6406 22.0703 44.6406L28.0273 44.6406C28.8349 44.6406 29.4922 45.2979 29.4922 46.1055 29.4922 46.913 28.8349 47.5703 28.0273 47.5703ZM8.78906 38.7812 7.32422 38.7812C4.90112 38.7812 2.92969 36.8098 2.92969 34.3867L2.92969 28.332C2.92969 25.9089 4.90112 23.9375 7.32422 23.9375L8.78906 23.9375 8.78906 38.7812ZM25 6.35938C16.4825 6.35938 9.59206 12.9241 8.85658 21.0078L7.32422 21.0078C6.83899 21.0078 6.36559 21.0563 5.90668 21.1467 6.59332 11.2628 14.8937 3.42969 25 3.42969 35.1063 3.42969 43.4067 11.2628 44.0933 21.1467 43.6344 21.0563 43.161 21.0078 42.6758 21.0078L41.1434 21.0078C40.4076 12.9203 33.5136 6.35938 25 6.35938ZM47.0703 34.3867C47.0703 36.8098 45.0989 38.7812 42.6758 38.7812L41.2109 38.7812 41.2109 23.9375 42.6758 23.9375C45.0989 23.9375 47.0703 25.9089 47.0703 28.332L47.0703 34.3867Z" fill="#A1A1A7"/></g></svg>