<?xml version="1.0" encoding="utf-8"?>
<!-- Generator: Adobe Illustrator 24.2.0, SVG Export Plug-In . SVG Version: 6.00 Build 0)  -->
<svg version="1.1" id="Capa_1" xmlns="http://www.w3.org/2000/svg" xmlns:xlink="http://www.w3.org/1999/xlink" x="0px" y="0px"
	 viewBox="0 0 1920 1080" style="enable-background:new 0 0 1920 1080;" xml:space="preserve">
<style type="text/css">
	.st0{fill-rule:evenodd;clip-rule:evenodd;fill:#505050;}
	.st1{fill-rule:evenodd;clip-rule:evenodd;fill:none;stroke:#505050;stroke-width:3.7226;stroke-miterlimit:10;}
</style>
<g>
	<path class="st0" d="M680.46,497.54c-0.42-0.59-0.47-1.25-0.16-1.96c10.32-21.7,17.01-38.19,20.05-49.48
		c0.5-2.07,0.62-3.75,0.36-5.04c-0.05-0.26-0.41-0.93-1.08-2.01c-0.25-0.49-0.34-0.94-0.26-1.35c1.65-0.81,6.57-4.45,14.78-10.9
		c0.1-0.28,0.36-0.46,0.8-0.54c0.88-0.15,1.51,0.08,1.94,0.67c0.73,0.68,0.8,1.39,0.2,2.16c-3.54,6.46-6.55,12.05-9,16.78
		c-2.45,4.75-4.2,8.66-5.24,11.76c-0.3,0.85-0.38,1.54-0.28,2.05c0.13,0.64,0.94,0.57,2.44-0.22c1.22-0.74,1.99-1.4,2.31-1.99
		c4.49-7.01,10.62-14.5,18.38-22.48c8-8.29,14.44-13.83,19.3-16.65c4.48-0.91,7.91-1.09,10.28-0.57l0.3,0.35
		c0.06,0.38-0.08,0.98-0.45,1.77c-0.37,0.79-0.82,1.53-1.36,2.22c-0.55,0.7-1.15,1.27-1.81,1.71c-0.67,0.44-1.24,0.58-1.73,0.39
		c-3.15-0.65-6.97,0.59-11.45,3.75c-19.49,14.23-35.26,35.01-47.34,62.31c0.07,0.38-0.42,0.94-1.48,1.65
		c-1.09,0.59-2.31,1.3-3.65,2.13c-1.33,0.82-2.86,1.92-4.55,3.26C681.19,498.21,680.76,498.29,680.46,497.54"/>
	<path class="st0" d="M284.83,610.66c-8.96,1.37-19.41-0.68-31.35-6.15c-12.73-5.81-22.56-13.4-29.47-22.76
		c-1.27-1.85-2.04-3.48-2.31-4.87c-0.83-4.17,2.17-6.44,8.97-6.81c16.53-0.59,42.16,3.17,76.89,11.3
		C305.43,598.98,297.85,608.75,284.83,610.66 M213.47,577.8c2.37,8.38,11.46,16.89,27.29,25.53c16.18,9.53,30.98,12.99,44.4,10.37
		c6.6-1.45,12.48-5.15,17.63-11.15c5.53-5.89,8.92-12.63,10.14-20.19c47.39,12.67,87.95,21.24,121.68,25.69
		c33.73,4.46,60.62,4.74,80.67,0.84c4.35-0.91,8.7-1.97,13.08-3.2c4.37-1.23,8.7-2.85,13.03-4.87c3.84-1.61,6.98-3.15,9.41-4.59
		c2.43-1.46,4.35-2.71,5.77-3.75c4.28-4.08,7.61-10.57,10.02-19.44c2.17-9.16,2.59-17.14,1.26-23.94c-0.55-2.79-1.35-4.08-2.41-3.91
		c-0.7,0.11-1.05,1.54-1.05,4.26c0.38,3.77,0.36,7.56-0.06,11.39c-0.42,3.82-1.21,7.46-2.33,10.94c-1.13,3.46-2.52,6.69-4.19,9.7
		c-1.68,2.99-3.5,5.46-5.46,7.4c-9.4,9.27-22.1,15.12-38.09,17.54c-20.41,3.01-46.3,2.01-77.71-3.01
		c-11.23-1.92-23.15-4.27-35.73-7.07c-12.59-2.8-25.96-6.1-40.11-9.91c-7.67-2.21-15.3-4.41-22.89-6.63
		c-7.59-2.21-15.19-4.36-22.84-6.41c3.53-15.14,6.54-27.63,9.03-37.49c2.5-9.85,4.51-17.3,6.03-22.36
		c10.54-35.66,21.23-61.3,32.1-76.89c9.98-14.49,20.59-22.22,31.8-23.18c8.7-0.84,18.07,1.71,28.12,7.65
		c5.11,2.97,9.74,6.29,13.92,9.97c4.16,3.69,7.78,7.81,10.86,12.4c1.03,1.58,2.07,2.28,3.13,2.1c1.05-0.17,1.44-0.96,1.16-2.35
		c-0.06-0.31-0.21-0.64-0.46-1c-0.25-0.35-0.52-0.74-0.78-1.18c-7.28-12.17-15.86-21.02-25.73-26.51c-9.86-5.51-20.01-7.2-30.46-5.1
		c-3.51,0.6-7.15,1.86-10.93,3.79c-3.78,1.92-7.82,4.37-12.13,7.34c-3.45,2.67-6.33,5.07-8.62,7.23c-2.28,2.15-4.24,4.23-5.81,6.26
		c-5.45,7.32-10.81,17.27-16.12,29.84c-5.3,12.57-10.42,27.9-15.36,45.99c-4.35,14.65-9.32,35.31-14.92,61.99
		c-11.58-2.66-20.47-4.65-26.71-5.98c-6.23-1.32-9.92-2.13-11.06-2.42c-17.83-3.19-31.2-4.01-40.13-2.49
		c-0.89,0.15-1.84,0.36-2.87,0.62c-1.03,0.25-1.96,0.53-2.82,0.84c-1.34,0.55-2.63,1.33-3.89,2.34c-1.26,1.02-2.71,2.31-4.39,3.87
		C214.13,572.49,212.66,575.55,213.47,577.8"/>
	<path class="st0" d="M479.9,480.01c-1.72,4.28-3.31,8.65-4.76,13.07c-1.46,4.43-2.67,8.73-3.67,12.88
		c-0.99,4.15-1.44,7.56-1.38,10.2c0.03,2.39,0.31,4.07,0.89,5.04c0.56,0.97,1.23,1.48,1.99,1.54c0.77,0.07,1.68-0.11,2.72-0.56
		c1.04-0.45,2.04-0.88,3.01-1.32c0.97-0.42,2.12-1.06,3.47-1.88c1.34-0.83,2.41-1.58,3.18-2.24c2.05-1.81,3.29-2.19,3.72-1.14
		c0.44,1.06-0.08,2.44-1.55,4.16c-1.17,1.66-2.69,3.28-4.57,4.87c-1.87,1.58-3.7,2.86-5.46,3.81c-0.82,0.41-1.94,0.46-3.35,0.18
		c-1.41-0.28-2.77-0.82-4.04-1.6c-1.29-0.78-2.45-1.71-3.49-2.8c-1.05-1.08-1.69-2.26-1.95-3.55c-0.49-2.44-0.67-5.07-0.54-7.88
		c0.12-2.81,0.43-5.59,0.96-8.33c0.5-2.74,1.13-5.48,1.88-8.19c0.74-2.72,1.41-5.25,1.99-7.62c0.51-2.08,0.19-3.65-0.92-4.72
		c-1.12-1.07-2.76-0.22-4.92,2.53c-2.89,3.69-6.67,8.35-11.35,14c-4.69,5.65-9.42,11.24-14.19,16.77
		c-4.79,5.53-9.27,10.48-13.44,14.85c-4.19,4.38-7.39,7.07-9.58,8.12c-3.71,1.83-7.03,1.82-9.94,0c-2.92-1.82-4.55-4.38-4.9-7.64
		c-0.29-3-0.06-6.56,0.72-10.68c0.77-4.12,1.96-8.41,3.56-12.87c1.61-4.45,3.41-9.02,5.43-13.68c2.01-4.66,4.1-9.1,6.29-13.33
		c2.16-4.23,4.24-8.06,6.19-11.52c1.96-3.46,3.68-6.31,5.2-8.57c0.58-0.89,1.46-1.61,2.63-2.14c1.17-0.53,2.23-0.74,3.15-0.64
		c0.92,0.12,1.53,0.58,1.84,1.38c0.31,0.82-0.04,2.1-1.04,3.86c-2.65,4.18-5.35,8.96-8.12,14.35c-2.78,5.39-5.36,10.82-7.75,16.27
		c-2.39,5.46-4.47,10.73-6.25,15.82c-1.79,5.08-2.84,9.45-3.18,13.09c-0.71,5.57-0.01,8.94,2.1,10.1c2.12,1.17,4.81,0.55,8.11-1.89
		c5.07-4.05,10.27-9.15,15.6-15.32c5.34-6.15,10.56-12.53,15.66-19.12c5.1-6.58,9.97-13,14.61-19.24
		c4.64-6.23,8.81-11.47,12.49-15.69c1.09-1.37,2.17-1.96,3.27-1.75c1.09,0.21,2.03,0.81,2.83,1.8c0.81,1,1.36,2.1,1.68,3.31
		c0.3,1.21,0.31,2.17,0,2.89C483.23,472.07,481.62,475.74,479.9,480.01"/>
	<path class="st0" d="M569.1,460.77c-4.39,3.67-8.88,7.6-13.48,11.76c-4.6,4.18-9.07,8.3-13.38,12.36
		c-4.31,4.06-7.8,7.38-10.46,9.96c0.84,1.98,2.18,4.55,4,7.69c1.82,3.15,3.77,6.33,5.84,9.57c2.07,3.23,4.21,6.29,6.44,9.16
		c2.22,2.88,4.3,5.02,6.24,6.41c2.12,1.63,2.8,2.64,2.06,3.04c-0.75,0.39-2.07,0.01-3.95-1.12c-1.59-1.19-3.53-3.05-5.84-5.57
		c-2.3-2.53-4.62-5.29-6.94-8.28c-2.32-3-4.54-6-6.64-9.03c-2.1-3.03-3.83-5.69-5.19-7.98c-2.68,2.45-5.64,5.36-8.89,8.7
		c-3.26,3.35-6.63,7.05-10.13,11.1c-3.49,4.05-7.04,8.34-10.66,12.89c-3.63,4.53-7.07,9.22-10.34,14.02
		c-1.63,2.4-3.51,5.46-5.65,9.14c-2.13,3.69-3.86,7.51-5.18,11.46c-1.34,3.95-1.88,7.82-1.66,11.65c0.22,3.81,1.82,7.13,4.79,9.94
		c2.11,2.3,4.49,3.88,7.14,4.76c2.66,0.87,5.28,1.35,7.85,1.44c1.25,0.19,1.73,0.56,1.47,1.15c-0.26,0.57-1.02,0.77-2.26,0.59
		c-2.27-0.02-4.89-0.56-7.89-1.65c-2.99-1.09-5.58-2.57-7.76-4.46c-3.28-2.9-5.39-6.13-6.31-9.68c-0.93-3.56-0.99-7.31-0.19-11.24
		c0.81-3.92,2.31-7.97,4.5-12.12c2.19-4.17,4.59-8.4,7.21-12.7c2.91-4.35,6.14-8.79,9.67-13.31c3.56-4.53,7.16-8.97,10.82-13.31
		c3.66-4.35,7.29-8.45,10.89-12.33c3.61-3.87,6.91-7.39,9.89-10.56c-0.97-1.84-2.06-4.14-3.29-6.91c-1.23-2.78-2.42-5.6-3.59-8.46
		c-1.15-2.86-2.24-5.65-3.23-8.42c-1-2.75-1.76-5.08-2.29-6.98c-0.29-0.74-0.29-1.51,0-2.29c0.31-0.78,0.71-1.38,1.23-1.8
		c0.52-0.42,1.09-0.59,1.72-0.49c0.62,0.1,1.11,0.7,1.49,1.84c0.84,1.98,1.75,4.32,2.73,7.01c0.98,2.7,2,5.37,3.06,8.05
		c1.05,2.68,2.1,5.28,3.12,7.84c1.03,2.54,2.09,4.65,3.18,6.32c2.38-2.39,5.73-5.66,10.03-9.79c4.31-4.12,8.83-8.32,13.56-12.58
		c4.73-4.26,9.25-8.23,13.58-11.89c4.33-3.67,7.81-6.39,10.47-8.17c0.91-0.69,1.78-0.9,2.59-0.64c0.8,0.27,1.44,0.68,1.93,1.26
		c0.49,0.59,0.67,1.32,0.55,2.21c-0.12,0.89-0.72,1.68-1.79,2.4C577.17,454.41,573.49,457.09,569.1,460.77"/>
	<path class="st0" d="M660.12,449.39c-1.72,4.28-3.31,8.64-4.76,13.07c-1.46,4.44-2.68,8.73-3.68,12.89
		c-0.98,4.16-1.44,7.56-1.38,10.2c0.02,2.39,0.31,4.07,0.89,5.03c0.56,0.97,1.23,1.48,1.99,1.55c0.76,0.07,1.68-0.13,2.72-0.57
		c1.04-0.44,2.05-0.88,3.01-1.31c0.97-0.43,2.13-1.06,3.47-1.88c1.34-0.83,2.41-1.58,3.18-2.24c2.05-1.81,3.29-2.19,3.73-1.13
		c0.43,1.06-0.08,2.44-1.55,4.15c-1.18,1.67-2.71,3.29-4.57,4.87c-1.87,1.58-3.7,2.86-5.46,3.82c-0.81,0.41-1.94,0.47-3.35,0.17
		c-1.42-0.28-2.77-0.82-4.05-1.61c-1.29-0.77-2.44-1.7-3.49-2.79c-1.04-1.08-1.68-2.27-1.94-3.55c-0.49-2.44-0.67-5.07-0.54-7.88
		c0.13-2.81,0.45-5.59,0.96-8.33c0.5-2.74,1.14-5.48,1.88-8.19c0.75-2.73,1.4-5.26,2-7.62c0.5-2.08,0.18-3.65-0.93-4.73
		c-1.12-1.08-2.76-0.22-4.93,2.53c-2.88,3.68-6.68,8.35-11.35,14c-4.69,5.65-9.42,11.24-14.19,16.78
		c-4.79,5.53-9.25,10.49-13.44,14.85c-4.19,4.38-7.38,7.08-9.59,8.12c-3.7,1.83-7.01,1.82-9.94,0c-2.92-1.82-4.56-4.36-4.9-7.63
		c-0.29-3.01-0.05-6.57,0.72-10.69c0.77-4.12,1.95-8.4,3.56-12.87c1.6-4.46,3.41-9.02,5.42-13.69c2.03-4.66,4.11-9.1,6.3-13.33
		c2.17-4.22,4.24-8.07,6.2-11.52c1.94-3.46,3.67-6.31,5.19-8.57c0.57-0.9,1.44-1.61,2.62-2.14c1.18-0.52,2.23-0.74,3.16-0.64
		c0.92,0.12,1.53,0.57,1.85,1.38c0.31,0.81-0.04,2.1-1.04,3.87c-2.64,4.17-5.35,8.96-8.13,14.35c-2.78,5.4-5.36,10.82-7.74,16.27
		c-2.4,5.46-4.48,10.73-6.25,15.82c-1.79,5.09-2.85,9.46-3.18,13.1c-0.7,5.57,0,8.94,2.11,10.12c2.11,1.16,4.81,0.54,8.1-1.89
		c5.07-4.05,10.27-9.16,15.6-15.33c5.34-6.16,10.56-12.53,15.66-19.12c5.1-6.58,9.96-13,14.61-19.24
		c4.63-6.24,8.79-11.47,12.48-15.69c1.08-1.38,2.17-1.97,3.27-1.75c1.09,0.21,2.04,0.82,2.84,1.81c0.8,0.99,1.35,2.1,1.67,3.31
		c0.32,1.21,0.32,2.17,0.01,2.88C663.44,441.44,661.83,445.11,660.12,449.39"/>
	<path class="st0" d="M606.91,613.57c5.4-22.99,29.94-48.18,73.62-75.58c36.59-22.86,80.17-43.54,130.73-62.02
		c-3.02,18.32-7.04,35.92-12.06,52.8c-5.03,16.87-11.04,33.15-18.04,48.83c-23.11,50.73-52.03,79.66-86.76,86.79
		c-20.1,4.23-39.3,2.27-57.63-5.89c-17.51-7.91-27.61-18.61-30.27-32.11c-0.43-2.19-0.59-4.33-0.46-6.4
		C606.15,617.92,606.44,615.77,606.91,613.57 M811.49,472.55c-21.11,7.46-41.52,15.67-61.2,24.62
		c-19.69,8.95-38.98,18.63-57.85,29.03c-54.67,30.47-85.33,58.18-92.01,83.11c-1.28,5-1.41,10.01-0.42,15.02
		c2.99,15.17,14.5,27.35,34.53,36.55c19.92,9.35,40.25,11.66,60.99,6.92c60.48-13.93,101.55-78.63,123.21-194.09
		c16.14-5.95,37.39-11.19,63.75-15.69c3.35-0.57,6.38-1.05,9.09-1.46c2.71-0.39,5.09-0.7,7.16-0.92c7.24-0.7,11.31,1.26,12.23,5.88
		c1.09,5.53-1.96,12.63-9.13,21.29c-1.28,1.16-1.84,2.12-1.68,2.89l0.47,0.11c0.87-0.15,1.78-0.84,2.75-2.06
		c6.54-6.57,10.43-11.62,11.69-15.16c0.65-1.3,0.8-2.8,0.47-4.46c-0.33-1.68-1.08-3.2-2.27-4.59c-1.17-1.4-2.58-2.62-4.21-3.67
		c-1.65-1.04-3.39-1.88-5.24-2.49c-1.86-0.61-3.61-0.91-5.27-0.9c-4.07-0.09-9.69,0.46-16.82,1.69
		c-20.25,3.46-41.09,8.88-62.52,16.27c2.99-17.65,5.04-31.36,6.13-41.11c0.5-1.28,0.93-2.32,1.31-3.12
		c0.37-0.79,0.77-1.56,1.23-2.31c0.05-1.34-0.68-2.48-2.13-3.42c-1.46-0.94-3.43-1.14-5.88-0.59c-1,0.3-1.89,0.95-2.66,1.95
		c-0.79,1.01-1.42,2.14-1.93,3.42c-1.71,2.03-4.04,4.48-7,7.38c-2.98,2.9-6.56,6.24-10.79,10.01c-5.38,4.78-10.21,8.76-14.48,11.95
		c-4.26,3.19-7.95,5.64-11.07,7.37c-1.09,0.59-2.4,0.81-3.93,0.68c-1.24-0.19-1.99-0.92-2.24-2.21c-0.13-0.64-0.07-1.52,0.16-2.62
		c1.81-5.36,4.94-12.4,9.39-21.14c5.38-10.09,9.5-15.97,12.32-17.65c-0.72-2.14-2.08-2.96-4.1-2.49c-1.14,0.33-4.13,1.97-8.96,4.92
		c-4.57,2.77-7.06,4.67-7.46,5.66c-0.29,0.85-0.16,2.09,0.39,3.72c0.55,1.63,0.73,2.74,0.55,3.29
		c-8.47,21.92-12.9,34.23-13.27,36.95c-0.12,0.95,0.35,1.8,1.4,2.55c1.05,0.75,2.24,1.01,3.54,0.79c0.43-0.07,1.07-0.32,1.89-0.72
		c7.74-4.25,17.79-11.75,30.12-22.49c9.38-8.12,17.1-15.55,23.15-22.3c0.07,1.85,0.06,4.31-0.01,7.38
		c-0.07,3.07-0.26,6.89-0.57,11.47C813.63,458.22,812.7,466.5,811.49,472.55"/>
	<g>
		<path class="st0" d="M1296.63,522.14c-14.75,0-26.75,12-26.75,26.75c0,14.75,12,26.75,26.75,26.75c14.75,0,26.75-12,26.75-26.75
			C1323.37,534.14,1311.37,522.14,1296.63,522.14z M1296.63,560.68c-6.5,0-11.79-5.29-11.79-11.79c0-6.5,5.29-11.79,11.79-11.79
			s11.79,5.29,11.79,11.79C1308.42,555.39,1303.13,560.68,1296.63,560.68z"/>
		<polygon class="st0" points="1357.45,523.41 1350.15,523.41 1350.15,507.63 1334.16,507.63 1334.16,523.41 1326.86,523.41 
			1326.86,537.89 1334.16,537.89 1334.16,574.36 1350.15,574.36 1350.15,537.89 1357.45,537.89 		"/>
		<rect x="1364.78" y="523.41" class="st0" width="15.99" height="50.95"/>
		<path class="st0" d="M1372.77,498.72c-4.91,0-8.91,4-8.91,8.91c0,4.91,4,8.91,8.91,8.91c4.91,0,8.91-4,8.91-8.91
			C1381.68,502.72,1377.68,498.72,1372.77,498.72z"/>
		<path class="st0" d="M1602.05,537.14c5.25,0,9.53,4.27,9.53,9.53v27.7h15.99v-29.89c0-13.57-7.83-22.33-20.18-22.33
			c-5.08,0-10.44,2.22-14.85,9.35v-8.08h-15.99v50.95h15.99v-27.7C1592.53,541.41,1596.8,537.14,1602.05,537.14z"/>
		<polygon class="st0" points="1685.83,574.36 1666.19,548.91 1684.46,523.41 1665.77,523.41 1651.09,544.03 1651.09,499.99 
			1635.1,499.99 1635.1,574.36 1651.09,574.36 1651.09,553.36 1667.21,574.36 		"/>
		<path class="st0" d="M1214.84,560.65c1.15-2.77,1.64-5.58,1.64-9.39c0-5.14-1.61-9.74-4.54-12.94c-3.41-3.74-9.25-6.84-17.34-9.23
			c-1.77-0.52-3.26-1.08-4.54-1.71c-1.43-0.7-2.48-1.54-3.39-2.52c-1.04-1.12-1.46-2.45-1.46-4.13c0-2.37,1.27-3.97,3.33-5.27
			c2.59-1.63,7.56-1.79,12.64,0.1c1.77,0.66,3.35,1.38,5.16,2.44l6.8-13.52c-2.52-1.51-6.12-3.47-9.74-4.39
			c-3.68-0.93-7.13-1.37-10.86-1.37c-3.74,0-7.15,0.56-10.15,1.68c-2.66,0.98-5.42,2.78-7.76,5.05c-2.13,2.06-4.06,5-5.16,7.73
			c-1.14,2.79-1.71,5.96-1.71,9.42c0,3.61,1.71,9.46,6.02,13.5c4.66,4.37,9.94,5.91,12.06,6.74c2.1,0.81,4.46,1.51,5.96,2.11
			c1.58,0.63,3.36,1.47,4.38,2.23c1.09,0.82,1.83,1.56,2.33,2.59c0.48,1.01,0.61,1.93,0.5,3.25c-0.14,1.68-0.9,3.11-2.27,4.39
			c-1.37,1.29-3.84,2.03-7.35,2.03c-2.94,0-5.93-0.83-8.92-2.15c-2.63-1.16-4.44-2.18-7.24-3.84l-7.99,13.92
			c5.58,4.95,14.62,8.25,22.67,8.25c4.11,0,8.39-0.68,12.04-1.92c3.45-1.17,6.86-3.08,9.13-5.1
			C1211.49,566.43,1213.71,563.38,1214.84,560.65z"/>
		<g>
			<path class="st0" d="M1697.1,556.55c-4.92,0-8.91,3.99-8.91,8.91c0,4.92,3.99,8.9,8.91,8.9c4.92,0,8.9-3.99,8.9-8.9
				C1706,560.54,1702.01,556.55,1697.1,556.55z M1697.1,572.57c-3.93,0-7.11-3.18-7.11-7.11c0-3.93,3.18-7.11,7.11-7.11
				c3.93,0,7.11,3.18,7.11,7.11C1704.21,569.39,1701.02,572.57,1697.1,572.57z"/>
			<g>
				<path class="st0" d="M1697.08,566.94h-1.43v3.38h-1.76v-9.72h3.73c1.79,0,3.24,1.44,3.24,3.22c0,1.22-0.76,2.32-1.88,2.83
					l2.05,3.67h-2.1L1697.08,566.94z M1695.65,565.31h2.04c0.75,0,1.37-0.66,1.37-1.5s-0.62-1.48-1.37-1.48h-2.04V565.31z"/>
			</g>
		</g>
		<path class="st0" d="M1258.62,556.27c-2.16,2.68-5.47,4.4-9.18,4.4c-6.5,0-11.79-5.29-11.79-11.79c0-6.5,5.29-11.79,11.79-11.79
			c3.71,0,7.02,1.72,9.18,4.4l10.6-10.6c-4.9-5.38-11.95-8.76-19.78-8.76c-14.75,0-27.59,10.5-27.59,26.75s12.84,26.75,27.59,26.75
			c7.83,0,14.88-3.38,19.78-8.76L1258.62,556.27z"/>
		<path class="st0" d="M1443.31,574.36v-50.95h-15.59v5.36l-1.44-1.29c-3.91-3.49-8.28-5.34-13.42-5.34
			c-13.75,0-25.37,12.25-25.37,26.75c0,14.5,11.62,26.75,25.37,26.75c5.15,0,9.52-1.85,13.42-5.34l1.44-1.29v5.36H1443.31z
			 M1415.34,560.92c-6.64,0-12.03-5.4-12.03-12.03c0-6.64,5.4-12.04,12.03-12.04c6.64,0,12.04,5.4,12.04,12.04
			C1427.37,555.52,1421.97,560.92,1415.34,560.92z"/>
		<path class="st0" d="M1568.89,574.36v-50.95h-15.58v5.36l-1.44-1.29c-3.91-3.49-8.28-5.34-13.42-5.34
			c-13.75,0-25.37,12.25-25.37,26.75c0,14.5,11.62,26.75,25.37,26.75c5.15,0,9.52-1.85,13.42-5.34l1.44-1.29v5.36H1568.89z
			 M1540.92,560.92c-6.64,0-12.03-5.4-12.03-12.03c0-6.64,5.4-12.04,12.03-12.04c6.64,0,12.04,5.4,12.04,12.04
			C1552.95,555.52,1547.55,560.92,1540.92,560.92z"/>
		<path class="st0" d="M1467.16,574.36v-5.36l1.44,1.29c3.91,3.49,8.28,5.34,13.42,5.34c13.75,0,25.37-12.25,25.37-26.75
			c0-14.5-11.62-26.75-25.37-26.75c-5.15,0-9.52,1.85-13.42,5.34l-1.44,1.29v-28.78h-15.59v74.37H1467.16z M1467.51,548.89
			c0-6.64,5.4-12.04,12.04-12.04c6.64,0,12.03,5.4,12.03,12.04c0,6.64-5.4,12.03-12.03,12.03
			C1472.91,560.92,1467.51,555.52,1467.51,548.89z"/>
	</g>
	<line class="st1" x1="1039.86" y1="475.83" x2="1039.86" y2="602.59"/>
</g>
</svg>
