<svg width="33" height="47" viewBox="0 0 33 47" fill="none" xmlns="http://www.w3.org/2000/svg">
<path d="M16.5017 0C7.86321 0 0.834961 7.02824 0.834961 15.6667C0.834961 18.26 1.48332 20.8312 2.71588 23.1118L15.6449 46.4951C15.817 46.8069 16.145 47 16.5017 47C16.8583 47 17.1863 46.8069 17.3584 46.4951L30.2922 23.1041C31.52 20.8312 32.1684 18.2599 32.1684 15.6666C32.1684 7.02824 25.1401 0 16.5017 0ZM16.5017 23.5C12.1824 23.5 8.66836 19.9859 8.66836 15.6667C8.66836 11.3475 12.1824 7.83339 16.5017 7.83339C20.8209 7.83339 24.335 11.3475 24.335 15.6667C24.335 19.9859 20.8209 23.5 16.5017 23.5Z" fill="#0A5DA6"/>
</svg>
