<svg width="424" height="344" viewBox="0 0 424 344" fill="none" xmlns="http://www.w3.org/2000/svg">
<g opacity="0.6">
<path opacity="0.6" fill-rule="evenodd" clip-rule="evenodd" d="M234.255 292.407C171.217 292.407 120.113 238.511 120.113 172.027C120.113 105.543 171.217 51.6479 234.255 51.6479C297.295 51.6479 348.398 105.543 348.398 172.027C348.398 238.511 297.295 292.407 234.255 292.407Z" stroke="#A3B1BF" stroke-width="1.62" stroke-linejoin="round" stroke-dasharray="12.15 12.15"/>
<path opacity="0.6" fill-rule="evenodd" clip-rule="evenodd" d="M234.093 342.5C144.807 342.5 72.4268 266.165 72.4268 172C72.4268 77.8354 144.807 1.5 234.093 1.5C323.379 1.5 395.759 77.8354 395.759 172C395.759 266.165 323.379 342.5 234.093 342.5Z" stroke="#A3B1BF" stroke-width="1.62" stroke-linejoin="round" stroke-dasharray="12.15 12.15"/>
</g>
<path fill-rule="evenodd" clip-rule="evenodd" d="M94.2951 197.946L113.684 196.885L99.4914 210.856L94.2951 197.946Z" fill="#F5F5F5"/>
<path fill-rule="evenodd" clip-rule="evenodd" d="M94.2951 197.946L113.684 196.885L99.4914 210.856L94.2951 197.946Z" stroke="#A3B1BF" stroke-width="1.62" stroke-linejoin="round"/>
<path fill-rule="evenodd" clip-rule="evenodd" d="M40.1949 210.625L59.559 201.957L72.6249 234.418L53.2609 243.086L40.1949 210.625Z" stroke="#A3B1BF" stroke-width="1.62" stroke-linejoin="round"/>
<path fill-rule="evenodd" clip-rule="evenodd" d="M56.2867 194.933L61.0645 192.795L79.9219 239.642L75.1436 241.781L56.2867 194.933Z" fill="#F5F5F5"/>
<path fill-rule="evenodd" clip-rule="evenodd" d="M56.2867 194.933L61.0645 192.795L79.9219 239.642L75.1436 241.781L56.2867 194.933Z" fill="#F0F0F0" stroke="#A3B1BF" stroke-width="1.62" stroke-linejoin="round"/>
<path fill-rule="evenodd" clip-rule="evenodd" d="M60.7028 253.019L78.6325 244.993L101.269 301.231L83.3398 309.257L60.7028 253.019Z" stroke="#A3B1BF" stroke-width="1.62" stroke-linejoin="round"/>
<path fill-rule="evenodd" clip-rule="evenodd" d="M65.0847 202.782L68.3956 201.3L79.2128 228.172L75.9014 229.654L65.0847 202.782Z" stroke="#A3B1BF" stroke-width="1.62" stroke-linejoin="round"/>
<path fill-rule="evenodd" clip-rule="evenodd" d="M70.5487 206.033L78.219 202.599L78.9506 204.417L71.2802 207.85L70.5487 206.033Z" fill="#F5F5F5"/>
<path fill-rule="evenodd" clip-rule="evenodd" d="M70.5487 206.033L78.219 202.599L78.9506 204.417L71.2802 207.85L70.5487 206.033Z" stroke="#A3B1BF" stroke-width="1.62" stroke-linejoin="round"/>
<path fill-rule="evenodd" clip-rule="evenodd" d="M76.7645 221.476L84.4349 218.042L85.1664 219.86L77.4961 223.293L76.7645 221.476Z" fill="#F5F5F5"/>
<path fill-rule="evenodd" clip-rule="evenodd" d="M76.7645 221.476L84.4349 218.042L85.1664 219.86L77.4961 223.293L76.7645 221.476Z" stroke="#A3B1BF" stroke-width="1.62" stroke-linejoin="round"/>
<path fill-rule="evenodd" clip-rule="evenodd" d="M66.3931 240.924L69.6496 249.014L67.9265 249.786L64.67 241.695L66.3931 240.924Z" stroke="#A3B1BF" stroke-width="1.62" stroke-linejoin="round"/>
<path fill-rule="evenodd" clip-rule="evenodd" d="M35.7923 218.858L40.1949 210.625L53.2613 243.087L44.5872 240.708L35.7923 218.858Z" stroke="#A3B1BF" stroke-width="1.62" stroke-linejoin="round"/>
<path fill-rule="evenodd" clip-rule="evenodd" d="M35.7925 218.858L30.3875 215.016L43.4538 247.477L44.5875 240.708L35.7925 218.858Z" stroke="#A3B1BF" stroke-width="1.62" stroke-linejoin="round"/>
<path fill-rule="evenodd" clip-rule="evenodd" d="M32.6211 220.931L27.1025 219.756L30.9982 229.435L34.0301 224.432L32.6211 220.931Z" stroke="#A3B1BF" stroke-width="1.62" stroke-linejoin="round"/>
<path fill-rule="evenodd" clip-rule="evenodd" d="M39.5606 238.173L34.042 236.997L37.9377 246.676L40.9696 241.673L39.5606 238.173Z" stroke="#A3B1BF" stroke-width="1.62" stroke-linejoin="round"/>
<path fill-rule="evenodd" clip-rule="evenodd" d="M69.3199 202.981L71.625 201.949L74.78 209.786L72.4747 210.818L69.3199 202.981Z" fill="#F0F0F0"/>
<path fill-rule="evenodd" clip-rule="evenodd" d="M69.3199 202.981L71.625 201.949L74.78 209.786L72.4747 210.818L69.3199 202.981Z" stroke="#A3B1BF" stroke-width="1.62" stroke-linejoin="round"/>
<path fill-rule="evenodd" clip-rule="evenodd" d="M75.5533 218.466L77.8584 217.434L81.0134 225.271L78.7081 226.304L75.5533 218.466Z" fill="#F0F0F0"/>
<path fill-rule="evenodd" clip-rule="evenodd" d="M75.5533 218.466L77.8584 217.434L81.0134 225.271L78.7081 226.304L75.5533 218.466Z" stroke="#A3B1BF" stroke-width="1.62" stroke-linejoin="round"/>
<path fill-rule="evenodd" clip-rule="evenodd" d="M62.5428 238.932L65.9858 237.391L67.563 241.309L64.1201 242.85L62.5428 238.932Z" fill="#F5F5F5" stroke="#A3B1BF" stroke-width="1.62" stroke-linejoin="round"/>
<path fill-rule="evenodd" clip-rule="evenodd" d="M83.0119 210.697C77.184 196.218 78.0938 181.501 84.5982 174.873C85.6737 173.778 88.138 171.94 90.0942 176.8C92.0499 181.66 109.132 224.097 110.913 228.523C112.695 232.949 110.046 234.323 108.553 234.378C99.5126 234.71 88.84 225.176 83.0119 210.697Z" fill="#F5F5F5"/>
<path fill-rule="evenodd" clip-rule="evenodd" d="M83.0119 210.697C77.184 196.218 78.0938 181.501 84.5982 174.873C85.6737 173.778 88.138 171.94 90.0942 176.8C92.0499 181.66 109.132 224.097 110.913 228.523C112.695 232.949 110.046 234.323 108.553 234.378C99.5126 234.71 88.84 225.176 83.0119 210.697Z" fill="#F0F0F0" stroke="#A3B1BF" stroke-width="1.62" stroke-linejoin="round"/>
<path fill-rule="evenodd" clip-rule="evenodd" d="M77.5958 201.052L79.9009 200.021L88.0771 220.333L85.772 221.365L77.5958 201.052Z" fill="#F0F0F0"/>
<path fill-rule="evenodd" clip-rule="evenodd" d="M77.5958 201.052L79.9009 200.021L88.0771 220.333L85.772 221.365L77.5958 201.052Z" stroke="#A3B1BF" stroke-width="1.62" stroke-linejoin="round"/>
<path fill-rule="evenodd" clip-rule="evenodd" d="M115.439 199.236C114.047 199.859 112.44 199.174 111.849 197.706C111.259 196.238 111.908 194.543 113.299 193.92C114.691 193.298 116.298 193.983 116.889 195.45C117.48 196.918 116.83 198.613 115.439 199.236Z" fill="#BFBFBF"/>
<path fill-rule="evenodd" clip-rule="evenodd" d="M77.1105 252.567L76.2564 250.445L78.2681 249.544L79.1222 251.666L77.1105 252.567Z" fill="#BFBFBF"/>
<path fill-rule="evenodd" clip-rule="evenodd" d="M78.4982 256.015L77.6441 253.893L79.6558 252.993L80.5099 255.114L78.4982 256.015Z" fill="#BFBFBF"/>
<path fill-rule="evenodd" clip-rule="evenodd" d="M79.8864 259.463L79.0323 257.341L81.044 256.441L81.898 258.563L79.8864 259.463Z" fill="#BFBFBF"/>
<path fill-rule="evenodd" clip-rule="evenodd" d="M81.2746 262.911L80.4205 260.789L82.4322 259.889L83.2862 262.011L81.2746 262.911Z" fill="#BFBFBF"/>
<path fill-rule="evenodd" clip-rule="evenodd" d="M74.0929 253.917L73.2388 251.795L75.2505 250.895L76.1046 253.017L74.0929 253.917Z" fill="#BFBFBF"/>
<path fill-rule="evenodd" clip-rule="evenodd" d="M75.4811 257.365L74.627 255.244L76.6387 254.343L77.4928 256.465L75.4811 257.365Z" fill="#BFBFBF"/>
<path fill-rule="evenodd" clip-rule="evenodd" d="M76.8688 260.814L76.0147 258.692L78.0264 257.791L78.8805 259.913L76.8688 260.814Z" fill="#BFBFBF"/>
<path fill-rule="evenodd" clip-rule="evenodd" d="M78.2565 264.262L77.4024 262.141L79.4141 261.24L80.2682 263.362L78.2565 264.262Z" fill="#BFBFBF"/>
<path fill-rule="evenodd" clip-rule="evenodd" d="M71.0748 255.268L70.2208 253.146L72.2324 252.246L73.0865 254.368L71.0748 255.268Z" fill="#BFBFBF"/>
<path fill-rule="evenodd" clip-rule="evenodd" d="M72.463 258.717L71.6089 256.595L73.6206 255.694L74.4747 257.816L72.463 258.717Z" fill="#BFBFBF"/>
<path fill-rule="evenodd" clip-rule="evenodd" d="M73.8512 262.165L72.9971 260.043L75.0088 259.142L75.8629 261.264L73.8512 262.165Z" fill="#BFBFBF"/>
<path fill-rule="evenodd" clip-rule="evenodd" d="M75.2389 265.613L74.3848 263.491L76.3965 262.591L77.2506 264.713L75.2389 265.613Z" fill="#BFBFBF"/>
<path fill-rule="evenodd" clip-rule="evenodd" d="M68.0573 256.619L67.2032 254.497L69.2149 253.597L70.0689 255.718L68.0573 256.619Z" fill="#BFBFBF"/>
<path fill-rule="evenodd" clip-rule="evenodd" d="M69.445 260.067L68.5909 257.945L70.6026 257.045L71.4566 259.167L69.445 260.067Z" fill="#BFBFBF"/>
<path fill-rule="evenodd" clip-rule="evenodd" d="M70.8331 263.516L69.9791 261.394L71.9907 260.493L72.8448 262.615L70.8331 263.516Z" fill="#BFBFBF"/>
<path fill-rule="evenodd" clip-rule="evenodd" d="M72.2213 266.964L71.3672 264.842L73.3789 263.942L74.233 266.064L72.2213 266.964Z" fill="#BFBFBF"/>
<path fill-rule="evenodd" clip-rule="evenodd" d="M65.0397 257.97L64.1856 255.848L66.1973 254.948L67.0514 257.069L65.0397 257.97Z" fill="#BFBFBF"/>
<path fill-rule="evenodd" clip-rule="evenodd" d="M66.4279 261.418L65.5738 259.296L67.5855 258.396L68.4396 260.518L66.4279 261.418Z" fill="#BFBFBF"/>
<path fill-rule="evenodd" clip-rule="evenodd" d="M67.8151 264.866L66.961 262.745L68.9727 261.844L69.8268 263.966L67.8151 264.866Z" fill="#BFBFBF"/>
<path fill-rule="evenodd" clip-rule="evenodd" d="M69.2032 268.315L68.3492 266.193L70.3609 265.292L71.2149 267.414L69.2032 268.315Z" fill="#BFBFBF"/>
<path fill-rule="evenodd" clip-rule="evenodd" d="M84.3795 270.626L83.5254 268.504L85.5371 267.603L86.3912 269.725L84.3795 270.626Z" fill="#BFBFBF"/>
<path fill-rule="evenodd" clip-rule="evenodd" d="M85.7677 274.074L84.9136 271.952L86.9253 271.052L87.7794 273.173L85.7677 274.074Z" fill="#BFBFBF"/>
<path fill-rule="evenodd" clip-rule="evenodd" d="M87.1559 277.523L86.3018 275.401L88.3135 274.5L89.1676 276.622L87.1559 277.523Z" fill="#BFBFBF"/>
<path fill-rule="evenodd" clip-rule="evenodd" d="M88.5441 280.971L87.69 278.849L89.7017 277.949L90.5558 280.07L88.5441 280.971Z" fill="#BFBFBF"/>
<path fill-rule="evenodd" clip-rule="evenodd" d="M81.3619 271.977L80.5079 269.855L82.5196 268.954L83.3736 271.076L81.3619 271.977Z" fill="#BFBFBF"/>
<path fill-rule="evenodd" clip-rule="evenodd" d="M82.7496 275.425L81.8956 273.303L83.9072 272.403L84.7613 274.525L82.7496 275.425Z" fill="#BFBFBF"/>
<path fill-rule="evenodd" clip-rule="evenodd" d="M84.1378 278.873L83.2837 276.751L85.2954 275.851L86.1495 277.973L84.1378 278.873Z" fill="#BFBFBF"/>
<path fill-rule="evenodd" clip-rule="evenodd" d="M85.526 282.322L84.6719 280.2L86.6836 279.299L87.5377 281.421L85.526 282.322Z" fill="#BFBFBF"/>
<path fill-rule="evenodd" clip-rule="evenodd" d="M78.3444 273.327L77.4903 271.206L79.502 270.305L80.3561 272.427L78.3444 273.327Z" fill="#BFBFBF"/>
<path fill-rule="evenodd" clip-rule="evenodd" d="M79.7321 276.776L78.878 274.654L80.8897 273.753L81.7437 275.875L79.7321 276.776Z" fill="#BFBFBF"/>
<path fill-rule="evenodd" clip-rule="evenodd" d="M81.1198 280.224L80.2657 278.102L82.2774 277.202L83.1315 279.324L81.1198 280.224Z" fill="#BFBFBF"/>
<path fill-rule="evenodd" clip-rule="evenodd" d="M82.5079 283.673L81.6539 281.551L83.6656 280.65L84.5196 282.772L82.5079 283.673Z" fill="#BFBFBF"/>
<path fill-rule="evenodd" clip-rule="evenodd" d="M75.3263 274.678L74.4722 272.557L76.4839 271.656L77.338 273.778L75.3263 274.678Z" fill="#BFBFBF"/>
<path fill-rule="evenodd" clip-rule="evenodd" d="M76.7145 278.127L75.8604 276.005L77.8721 275.104L78.7262 277.226L76.7145 278.127Z" fill="#BFBFBF"/>
<path fill-rule="evenodd" clip-rule="evenodd" d="M78.1027 281.575L77.2486 279.453L79.2603 278.553L80.1144 280.674L78.1027 281.575Z" fill="#BFBFBF"/>
<path fill-rule="evenodd" clip-rule="evenodd" d="M79.4904 285.023L78.6363 282.901L80.648 282.001L81.502 284.123L79.4904 285.023Z" fill="#BFBFBF"/>
<path fill-rule="evenodd" clip-rule="evenodd" d="M72.3087 276.029L71.4546 273.907L73.4663 273.007L74.3204 275.129L72.3087 276.029Z" fill="#BFBFBF"/>
<path fill-rule="evenodd" clip-rule="evenodd" d="M73.6964 279.478L72.8423 277.356L74.854 276.455L75.7081 278.577L73.6964 279.478Z" fill="#BFBFBF"/>
<path fill-rule="evenodd" clip-rule="evenodd" d="M75.0846 282.926L74.2305 280.804L76.2422 279.904L77.0963 282.026L75.0846 282.926Z" fill="#BFBFBF"/>
<path fill-rule="evenodd" clip-rule="evenodd" d="M76.4728 286.374L75.6187 284.252L77.6304 283.352L78.4845 285.474L76.4728 286.374Z" fill="#BFBFBF"/>
<path fill-rule="evenodd" clip-rule="evenodd" d="M91.6491 288.685L90.795 286.563L92.8067 285.663L93.6607 287.785L91.6491 288.685Z" fill="#BFBFBF"/>
<path fill-rule="evenodd" clip-rule="evenodd" d="M93.0367 292.134L92.1827 290.012L94.1944 289.111L95.0484 291.233L93.0367 292.134Z" fill="#BFBFBF"/>
<path fill-rule="evenodd" clip-rule="evenodd" d="M94.4249 295.582L93.5709 293.46L95.5825 292.559L96.4366 294.681L94.4249 295.582Z" fill="#BFBFBF"/>
<path fill-rule="evenodd" clip-rule="evenodd" d="M95.8126 299.03L94.9586 296.908L96.9702 296.008L97.8243 298.129L95.8126 299.03Z" fill="#BFBFBF"/>
<path fill-rule="evenodd" clip-rule="evenodd" d="M88.631 290.036L87.7769 287.914L89.7886 287.014L90.6427 289.135L88.631 290.036Z" fill="#BFBFBF"/>
<path fill-rule="evenodd" clip-rule="evenodd" d="M90.0192 293.484L89.1651 291.362L91.1768 290.462L92.0309 292.584L90.0192 293.484Z" fill="#BFBFBF"/>
<path fill-rule="evenodd" clip-rule="evenodd" d="M91.4073 296.933L90.5533 294.811L92.565 293.91L93.419 296.032L91.4073 296.933Z" fill="#BFBFBF"/>
<path fill-rule="evenodd" clip-rule="evenodd" d="M92.795 300.381L91.941 298.259L93.9527 297.359L94.8067 299.481L92.795 300.381Z" fill="#BFBFBF"/>
<path fill-rule="evenodd" clip-rule="evenodd" d="M85.6134 291.387L84.7593 289.265L86.771 288.365L87.6251 290.486L85.6134 291.387Z" fill="#BFBFBF"/>
<path fill-rule="evenodd" clip-rule="evenodd" d="M87.0011 294.835L86.147 292.713L88.1587 291.813L89.0128 293.935L87.0011 294.835Z" fill="#BFBFBF"/>
<path fill-rule="evenodd" clip-rule="evenodd" d="M88.3893 298.283L87.5352 296.162L89.5469 295.261L90.401 297.383L88.3893 298.283Z" fill="#BFBFBF"/>
<path fill-rule="evenodd" clip-rule="evenodd" d="M89.7775 301.732L88.9234 299.61L90.9351 298.709L91.7892 300.831L89.7775 301.732Z" fill="#BFBFBF"/>
<path fill-rule="evenodd" clip-rule="evenodd" d="M82.5953 292.738L81.7413 290.616L83.753 289.715L84.607 291.837L82.5953 292.738Z" fill="#BFBFBF"/>
<path fill-rule="evenodd" clip-rule="evenodd" d="M83.9835 296.186L83.1295 294.064L85.1411 293.163L85.9952 295.285L83.9835 296.186Z" fill="#BFBFBF"/>
<path fill-rule="evenodd" clip-rule="evenodd" d="M85.3712 299.634L84.5171 297.513L86.5288 296.612L87.3829 298.734L85.3712 299.634Z" fill="#BFBFBF"/>
<path fill-rule="evenodd" clip-rule="evenodd" d="M86.7594 303.083L85.9053 300.961L87.917 300.06L88.7711 302.182L86.7594 303.083Z" fill="#BFBFBF"/>
<path fill-rule="evenodd" clip-rule="evenodd" d="M79.5778 294.089L78.7237 291.967L80.7354 291.066L81.5895 293.188L79.5778 294.089Z" fill="#BFBFBF"/>
<path fill-rule="evenodd" clip-rule="evenodd" d="M80.9659 297.537L80.1119 295.415L82.1236 294.514L82.9776 296.636L80.9659 297.537Z" fill="#BFBFBF"/>
<path fill-rule="evenodd" clip-rule="evenodd" d="M82.3541 300.985L81.5 298.863L83.5117 297.963L84.3658 300.085L82.3541 300.985Z" fill="#BFBFBF"/>
<path fill-rule="evenodd" clip-rule="evenodd" d="M83.7413 304.433L82.8873 302.311L84.8989 301.411L85.753 303.533L83.7413 304.433Z" fill="#BFBFBF"/>
<path fill-rule="evenodd" clip-rule="evenodd" d="M50.6808 201.889L47.4243 193.798L45.7013 194.57L48.9578 202.66L50.6808 201.889Z" stroke="#A3B1BF" stroke-width="1.62" stroke-linejoin="round"/>
<path fill-rule="evenodd" clip-rule="evenodd" d="M49.3647 206.193L52.8076 204.652L51.2304 200.734L47.7875 202.275L49.3647 206.193Z" fill="#BFBFBF"/>
<path fill-rule="evenodd" clip-rule="evenodd" d="M49.3647 206.193L52.8076 204.652L51.2304 200.734L47.7875 202.275L49.3647 206.193Z" fill="white" stroke="#A3B1BF" stroke-width="1.62" stroke-linejoin="round"/>
<path fill-rule="evenodd" clip-rule="evenodd" d="M50.1841 185.671L51.0382 187.793L53.0499 186.892L52.1958 184.77L50.1841 185.671Z" fill="#BFBFBF"/>
<path fill-rule="evenodd" clip-rule="evenodd" d="M48.796 182.223L49.65 184.344L51.6617 183.444L50.8076 181.322L48.796 182.223Z" fill="#BFBFBF"/>
<path fill-rule="evenodd" clip-rule="evenodd" d="M47.4083 178.774L48.2623 180.896L50.274 179.996L49.4199 177.874L47.4083 178.774Z" fill="#BFBFBF"/>
<path fill-rule="evenodd" clip-rule="evenodd" d="M46.0201 175.326L46.8742 177.448L48.8858 176.547L48.0318 174.426L46.0201 175.326Z" fill="#BFBFBF"/>
<path fill-rule="evenodd" clip-rule="evenodd" d="M47.1661 187.022L48.0201 189.144L50.0318 188.243L49.1778 186.121L47.1661 187.022Z" fill="#BFBFBF"/>
<path fill-rule="evenodd" clip-rule="evenodd" d="M45.7784 183.574L46.6325 185.696L48.6441 184.795L47.7901 182.673L45.7784 183.574Z" fill="#BFBFBF"/>
<path fill-rule="evenodd" clip-rule="evenodd" d="M44.3902 180.125L45.2443 182.247L47.256 181.347L46.4019 179.225L44.3902 180.125Z" fill="#BFBFBF"/>
<path fill-rule="evenodd" clip-rule="evenodd" d="M43.0025 176.677L43.8566 178.799L45.8683 177.899L45.0142 175.777L43.0025 176.677Z" fill="#BFBFBF"/>
<path fill-rule="evenodd" clip-rule="evenodd" d="M44.149 188.373L45.0031 190.495L47.0147 189.594L46.1607 187.472L44.149 188.373Z" fill="#BFBFBF"/>
<path fill-rule="evenodd" clip-rule="evenodd" d="M42.7608 184.924L43.6149 187.046L45.6266 186.146L44.7725 184.024L42.7608 184.924Z" fill="#BFBFBF"/>
<path fill-rule="evenodd" clip-rule="evenodd" d="M41.3726 181.476L42.2267 183.598L44.2384 182.697L43.3843 180.576L41.3726 181.476Z" fill="#BFBFBF"/>
<path fill-rule="evenodd" clip-rule="evenodd" d="M39.9849 178.028L40.839 180.15L42.8507 179.249L41.9966 177.127L39.9849 178.028Z" fill="#BFBFBF"/>
<path fill-rule="evenodd" clip-rule="evenodd" d="M41.1309 189.724L41.985 191.845L43.9967 190.945L43.1426 188.823L41.1309 189.724Z" fill="#BFBFBF"/>
<path fill-rule="evenodd" clip-rule="evenodd" d="M39.7427 186.275L40.5968 188.397L42.6085 187.497L41.7544 185.375L39.7427 186.275Z" fill="#BFBFBF"/>
<path fill-rule="evenodd" clip-rule="evenodd" d="M38.355 182.827L39.2091 184.949L41.2208 184.048L40.3667 181.927L38.355 182.827Z" fill="#BFBFBF"/>
<path fill-rule="evenodd" clip-rule="evenodd" d="M36.9668 179.379L37.8209 181.501L39.8326 180.6L38.9785 178.478L36.9668 179.379Z" fill="#BFBFBF"/>
<path fill-rule="evenodd" clip-rule="evenodd" d="M38.1128 191.075L38.9669 193.197L40.9786 192.296L40.1245 190.174L38.1128 191.075Z" fill="#BFBFBF"/>
<path fill-rule="evenodd" clip-rule="evenodd" d="M36.7251 187.626L37.5792 189.748L39.5909 188.847L38.7368 186.725L36.7251 187.626Z" fill="#BFBFBF"/>
<path fill-rule="evenodd" clip-rule="evenodd" d="M35.337 184.178L36.191 186.3L38.2027 185.399L37.3487 183.277L35.337 184.178Z" fill="#BFBFBF"/>
<path fill-rule="evenodd" clip-rule="evenodd" d="M33.9488 180.729L34.8029 182.851L36.8145 181.951L35.9605 179.829L33.9488 180.729Z" fill="#BFBFBF"/>
<path fill-rule="evenodd" clip-rule="evenodd" d="M42.9151 167.612L43.7692 169.734L45.7809 168.833L44.9268 166.711L42.9151 167.612Z" fill="#BFBFBF"/>
<path fill-rule="evenodd" clip-rule="evenodd" d="M41.5269 164.164L42.381 166.285L44.3927 165.385L43.5386 163.263L41.5269 164.164Z" fill="#BFBFBF"/>
<path fill-rule="evenodd" clip-rule="evenodd" d="M40.1392 160.715L40.9933 162.837L43.005 161.937L42.1509 159.815L40.1392 160.715Z" fill="#BFBFBF"/>
<path fill-rule="evenodd" clip-rule="evenodd" d="M38.751 157.267L39.6051 159.389L41.6168 158.488L40.7627 156.367L38.751 157.267Z" fill="#BFBFBF"/>
<path fill-rule="evenodd" clip-rule="evenodd" d="M39.8975 168.962L40.7516 171.084L42.7633 170.184L41.9092 168.062L39.8975 168.962Z" fill="#BFBFBF"/>
<path fill-rule="evenodd" clip-rule="evenodd" d="M38.5093 165.514L39.3634 167.636L41.3751 166.735L40.521 164.614L38.5093 165.514Z" fill="#BFBFBF"/>
<path fill-rule="evenodd" clip-rule="evenodd" d="M37.1211 162.066L37.9752 164.188L39.9869 163.287L39.1328 161.165L37.1211 162.066Z" fill="#BFBFBF"/>
<path fill-rule="evenodd" clip-rule="evenodd" d="M35.7335 158.618L36.5875 160.739L38.5992 159.839L37.7451 157.717L35.7335 158.618Z" fill="#BFBFBF"/>
<path fill-rule="evenodd" clip-rule="evenodd" d="M36.8794 170.313L37.7335 172.435L39.7452 171.535L38.8911 169.413L36.8794 170.313Z" fill="#BFBFBF"/>
<path fill-rule="evenodd" clip-rule="evenodd" d="M35.4913 166.865L36.3453 168.987L38.357 168.087L37.503 165.965L35.4913 166.865Z" fill="#BFBFBF"/>
<path fill-rule="evenodd" clip-rule="evenodd" d="M34.1036 163.417L34.9576 165.539L36.9693 164.638L36.1153 162.516L34.1036 163.417Z" fill="#BFBFBF"/>
<path fill-rule="evenodd" clip-rule="evenodd" d="M32.7154 159.969L33.5695 162.091L35.5811 161.19L34.7271 159.068L32.7154 159.969Z" fill="#BFBFBF"/>
<path fill-rule="evenodd" clip-rule="evenodd" d="M33.8614 171.664L34.7155 173.786L36.7271 172.886L35.8731 170.764L33.8614 171.664Z" fill="#BFBFBF"/>
<path fill-rule="evenodd" clip-rule="evenodd" d="M32.4737 168.216L33.3278 170.338L35.3394 169.437L34.4854 167.315L32.4737 168.216Z" fill="#BFBFBF"/>
<path fill-rule="evenodd" clip-rule="evenodd" d="M31.086 164.768L31.9401 166.889L33.9518 165.989L33.0977 163.867L31.086 164.768Z" fill="#BFBFBF"/>
<path fill-rule="evenodd" clip-rule="evenodd" d="M29.6978 161.319L30.5519 163.441L32.5636 162.541L31.7095 160.419L29.6978 161.319Z" fill="#BFBFBF"/>
<path fill-rule="evenodd" clip-rule="evenodd" d="M30.8443 173.015L31.6984 175.137L33.7101 174.236L32.856 172.115L30.8443 173.015Z" fill="#BFBFBF"/>
<path fill-rule="evenodd" clip-rule="evenodd" d="M29.4561 169.567L30.3102 171.689L32.3219 170.788L31.4678 168.666L29.4561 169.567Z" fill="#BFBFBF"/>
<path fill-rule="evenodd" clip-rule="evenodd" d="M28.0679 166.119L28.922 168.24L30.9337 167.34L30.0796 165.218L28.0679 166.119Z" fill="#BFBFBF"/>
<path fill-rule="evenodd" clip-rule="evenodd" d="M26.6797 162.67L27.5338 164.792L29.5455 163.892L28.6914 161.77L26.6797 162.67Z" fill="#BFBFBF"/>
<path fill-rule="evenodd" clip-rule="evenodd" d="M35.646 149.552L36.5001 151.674L38.5118 150.774L37.6577 148.652L35.646 149.552Z" fill="#BFBFBF"/>
<path fill-rule="evenodd" clip-rule="evenodd" d="M34.2579 146.104L35.1119 148.226L37.1236 147.325L36.2696 145.203L34.2579 146.104Z" fill="#BFBFBF"/>
<path fill-rule="evenodd" clip-rule="evenodd" d="M32.8697 142.656L33.7238 144.778L35.7354 143.877L34.8814 141.755L32.8697 142.656Z" fill="#BFBFBF"/>
<path fill-rule="evenodd" clip-rule="evenodd" d="M31.482 139.207L32.3361 141.329L34.3478 140.429L33.4937 138.307L31.482 139.207Z" fill="#BFBFBF"/>
<path fill-rule="evenodd" clip-rule="evenodd" d="M32.3361 141.329L34.3478 140.429L33.4937 138.307L31.482 139.207L32.3361 141.329Z" fill="#BFBFBF"/>
<path fill-rule="evenodd" clip-rule="evenodd" d="M32.628 150.903L33.4821 153.025L35.4937 152.125L34.6397 150.003L32.628 150.903Z" fill="#BFBFBF"/>
<path fill-rule="evenodd" clip-rule="evenodd" d="M31.2398 147.455L32.0939 149.577L34.1056 148.676L33.2515 146.555L31.2398 147.455Z" fill="#BFBFBF"/>
<path fill-rule="evenodd" clip-rule="evenodd" d="M29.8521 144.007L30.7062 146.129L32.7179 145.228L31.8638 143.106L29.8521 144.007Z" fill="#BFBFBF"/>
<path fill-rule="evenodd" clip-rule="evenodd" d="M28.4639 140.559L29.318 142.68L31.3297 141.78L30.4756 139.658L28.4639 140.559Z" fill="#BFBFBF"/>
<path fill-rule="evenodd" clip-rule="evenodd" d="M29.6099 152.254L30.464 154.376L32.4757 153.475L31.6216 151.353L29.6099 152.254Z" fill="#BFBFBF"/>
<path fill-rule="evenodd" clip-rule="evenodd" d="M28.2222 148.806L29.0763 150.927L31.088 150.027L30.2339 147.905L28.2222 148.806Z" fill="#BFBFBF"/>
<path fill-rule="evenodd" clip-rule="evenodd" d="M26.8345 145.357L27.6886 147.479L29.7003 146.579L28.8462 144.457L26.8345 145.357Z" fill="#BFBFBF"/>
<path fill-rule="evenodd" clip-rule="evenodd" d="M25.4463 141.909L26.3004 144.031L28.3121 143.13L27.458 141.009L25.4463 141.909Z" fill="#BFBFBF"/>
<path fill-rule="evenodd" clip-rule="evenodd" d="M26.5928 153.605L27.4469 155.727L29.4586 154.826L28.6045 152.704L26.5928 153.605Z" fill="#BFBFBF"/>
<path fill-rule="evenodd" clip-rule="evenodd" d="M25.2046 150.157L26.0587 152.279L28.0704 151.378L27.2163 149.256L25.2046 150.157Z" fill="#BFBFBF"/>
<path fill-rule="evenodd" clip-rule="evenodd" d="M23.8165 146.708L24.6705 148.83L26.6822 147.93L25.8281 145.808L23.8165 146.708Z" fill="#BFBFBF"/>
<path fill-rule="evenodd" clip-rule="evenodd" d="M22.4288 143.26L23.2828 145.382L25.2945 144.482L24.4405 142.36L22.4288 143.26Z" fill="#BFBFBF"/>
<path fill-rule="evenodd" clip-rule="evenodd" d="M23.5748 154.956L24.4288 157.078L26.4405 156.177L25.5864 154.056L23.5748 154.956Z" fill="#BFBFBF"/>
<path fill-rule="evenodd" clip-rule="evenodd" d="M22.1866 151.508L23.0407 153.63L25.0523 152.729L24.1983 150.607L22.1866 151.508Z" fill="#BFBFBF"/>
<path fill-rule="evenodd" clip-rule="evenodd" d="M20.7989 148.059L21.653 150.181L23.6646 149.28L22.8106 147.159L20.7989 148.059Z" fill="#BFBFBF"/>
<path fill-rule="evenodd" clip-rule="evenodd" d="M19.4107 144.611L20.2648 146.733L22.2765 145.832L21.4224 143.71L19.4107 144.611Z" fill="#BFBFBF"/>
<path fill-rule="evenodd" clip-rule="evenodd" d="M123.323 191.933C121.769 188.07 121.134 184.658 121.907 184.312C122.679 183.966 124.565 186.818 126.121 190.68C127.675 194.544 128.31 197.955 127.537 198.301C126.765 198.647 124.878 195.796 123.323 191.933Z" fill="#F5F5F5"/>
<path fill-rule="evenodd" clip-rule="evenodd" d="M123.323 191.933C121.769 188.07 121.134 184.658 121.907 184.312C122.679 183.966 124.565 186.818 126.121 190.68C127.675 194.544 128.31 197.955 127.537 198.301C126.765 198.647 124.878 195.796 123.323 191.933Z" stroke="#A3B1BF" stroke-width="1.62" stroke-linejoin="round"/>
<path fill-rule="evenodd" clip-rule="evenodd" d="M129.471 189.18C126.364 181.462 125.097 174.644 126.64 173.953C128.184 173.263 131.953 178.96 135.06 186.678C138.167 194.397 139.435 201.214 137.891 201.905C136.348 202.596 132.578 196.899 129.471 189.18Z" fill="#F5F5F5"/>
<path fill-rule="evenodd" clip-rule="evenodd" d="M129.471 189.18C126.364 181.462 125.097 174.644 126.64 173.953C128.184 173.263 131.953 178.96 135.06 186.678C138.167 194.397 139.435 201.214 137.891 201.905C136.348 202.596 132.578 196.899 129.471 189.18Z" stroke="#A3B1BF" stroke-width="1.62" stroke-linejoin="round"/>
<path fill-rule="evenodd" clip-rule="evenodd" d="M139.4 184.736C135.236 174.392 133.538 165.256 135.606 164.33C137.675 163.404 142.727 171.039 146.89 181.383C151.054 191.727 152.753 200.863 150.684 201.789C148.616 202.715 143.564 195.08 139.4 184.736Z" fill="#F5F5F5"/>
<path fill-rule="evenodd" clip-rule="evenodd" d="M139.4 184.736C135.236 174.392 133.538 165.256 135.606 164.33C137.675 163.404 142.727 171.039 146.89 181.383C151.054 191.727 152.753 200.863 150.684 201.789C148.616 202.715 143.564 195.08 139.4 184.736Z" stroke="#A3B1BF" stroke-width="1.62" stroke-linejoin="round"/>
<path opacity="0.85" fill-rule="evenodd" clip-rule="evenodd" d="M61.8791 91.1907C59.4536 90.0422 57.8449 88.6759 58.1161 87.8898C58.387 87.1045 60.4478 87.1477 63.0017 87.91C64.0837 85.3526 65.3559 83.6504 66.0748 83.9265C66.7937 84.2025 66.731 86.369 66.0014 89.0617C68.4224 90.2094 70.0273 91.5737 69.7564 92.3589C69.4852 93.145 67.4202 93.1009 64.8623 92.3361C63.7911 94.8297 62.5462 96.4772 61.8381 96.2053C61.1299 95.9334 61.1802 93.8272 61.8791 91.1907Z" fill="#BFBFBF"/>
<path fill-rule="evenodd" clip-rule="evenodd" d="M113.569 332.839L113.234 333.228C112.371 334.229 110.902 334.303 109.952 333.393C109.574 333.03 109.32 332.546 109.229 332.016L109.14 331.5L108.687 331.284C107.517 330.728 106.996 329.277 107.523 328.043C107.733 327.551 108.091 327.146 108.541 326.891L108.98 326.642L109.034 326.12C109.174 324.774 110.322 323.804 111.597 323.951C112.105 324.01 112.58 324.244 112.95 324.617L113.31 324.98L113.797 324.873C115.053 324.598 116.283 325.449 116.544 326.775C116.648 327.302 116.584 327.852 116.362 328.337L116.147 328.81L116.393 329.265C117.03 330.441 116.642 331.938 115.528 332.609C115.084 332.876 114.57 332.982 114.063 332.91L113.569 332.839Z" fill="#BFBFBF"/>
<path fill-rule="evenodd" clip-rule="evenodd" d="M413.989 121.896L413.989 121.896C413.298 122.329 412.404 122.09 411.993 121.36C411.829 121.07 411.761 120.731 411.799 120.395C411.194 119.836 411.134 118.865 411.664 118.227C411.876 117.974 412.16 117.8 412.474 117.734L412.475 117.734C412.793 116.954 413.649 116.594 414.388 116.93C414.683 117.063 414.927 117.295 415.083 117.59L415.084 117.59C415.885 117.668 416.474 118.416 416.4 119.26C416.371 119.597 416.237 119.914 416.02 120.162C416.197 120.989 415.705 121.812 414.92 121.999C414.608 122.073 414.281 122.037 413.99 121.896L413.989 121.896Z" fill="#BFBFBF"/>
<path fill-rule="evenodd" clip-rule="evenodd" d="M93.9535 39.7008L93.1569 39.8298C91.8885 40.0352 90.7024 39.1171 90.5077 37.7791C90.4302 37.2464 90.5213 36.7015 90.7669 36.2289L91.154 35.4842L90.792 34.7263C90.2147 33.5174 90.6757 32.0437 91.8217 31.4347C92.2781 31.1921 92.7977 31.1151 93.2998 31.2155L94.0908 31.3737L94.6635 30.7753C95.5752 29.8227 97.0463 29.8301 97.9494 30.7918C98.3089 31.1747 98.5388 31.6719 98.6034 32.2064L98.7054 33.0498L99.4211 33.4388C100.562 34.059 101.01 35.5371 100.422 36.7403C100.188 37.2195 99.8104 37.604 99.3482 37.834L98.6206 38.1962L98.491 39.0344C98.2843 40.3704 97.0901 41.2767 95.8237 41.0588C95.3194 40.972 94.8563 40.7123 94.506 40.3198L93.9535 39.7008Z" fill="#BFBFBF"/>
<path fill-rule="evenodd" clip-rule="evenodd" d="M379.248 309.24L378.739 309.104C377.495 308.77 376.743 307.436 377.06 306.124C377.186 305.602 377.471 305.138 377.873 304.804L378.285 304.461L378.251 303.909C378.167 302.558 379.137 301.392 380.418 301.304C380.928 301.268 381.434 301.412 381.86 301.711L382.296 302.019L382.785 301.813C383.977 301.312 385.328 301.925 385.803 303.183C385.992 303.683 386.02 304.236 385.881 304.754L385.739 305.288L386.074 305.714C386.895 306.755 386.759 308.3 385.773 309.166C385.38 309.51 384.89 309.709 384.379 309.73L383.855 309.752L383.575 310.22C382.89 311.365 381.455 311.707 380.37 310.984C379.938 310.696 379.608 310.266 379.431 309.761L379.248 309.24Z" fill="#BFBFBF"/>
<path fill-rule="evenodd" clip-rule="evenodd" d="M420.967 148.416L420.967 148.416C420.348 148.958 419.43 148.869 418.916 148.216C418.711 147.957 418.593 147.633 418.581 147.295C417.901 146.842 417.697 145.894 418.127 145.176C418.298 144.891 418.553 144.672 418.854 144.555L418.854 144.555C419.052 143.733 419.845 143.236 420.625 143.445C420.935 143.528 421.211 143.717 421.409 143.982L421.409 143.982C422.212 143.927 422.905 144.569 422.957 145.415C422.978 145.752 422.893 146.087 422.715 146.368C423.013 147.156 422.649 148.05 421.902 148.364C421.604 148.489 421.276 148.507 420.968 148.416L420.967 148.416Z" fill="#BFBFBF"/>
<path fill-rule="evenodd" clip-rule="evenodd" d="M233.901 223.376C265.012 223.376 290.233 196.777 290.233 163.966C290.233 131.154 265.012 104.556 233.901 104.556C202.789 104.556 177.569 131.154 177.569 163.966C177.569 196.777 202.789 223.376 233.901 223.376Z" fill="#BFBFBF"/>
<path fill-rule="evenodd" clip-rule="evenodd" d="M234.593 143.136C230.578 143.136 227.455 144.43 225.224 147.016C222.994 149.485 221.934 152.778 221.934 156.893H226.34C226.34 154.012 226.953 151.778 228.18 150.132C229.518 148.192 231.582 147.251 234.37 147.251C236.712 147.251 238.552 147.898 239.835 149.309C241.061 150.602 241.731 152.425 241.731 154.776C241.731 156.422 241.173 157.951 240.058 159.421C239.723 159.891 239.054 160.596 238.162 161.537C235.15 164.359 233.31 166.593 232.529 168.356C231.86 169.826 231.526 171.531 231.526 173.471V174.823H235.987V173.471C235.987 171.884 236.321 170.473 237.046 169.18C237.604 168.121 238.44 167.063 239.667 165.946C242.121 163.653 243.627 162.125 244.184 161.419C245.578 159.479 246.303 157.187 246.303 154.541C246.303 151.014 245.244 148.251 243.18 146.252C241.006 144.136 238.162 143.136 234.593 143.136ZM233.756 178.938C232.808 178.938 232.028 179.232 231.358 179.938C230.689 180.584 230.41 181.408 230.41 182.407C230.41 183.406 230.689 184.229 231.358 184.935C232.028 185.581 232.808 185.934 233.756 185.934C234.704 185.934 235.485 185.581 236.154 184.935C236.823 184.288 237.158 183.465 237.158 182.407C237.158 181.408 236.823 180.584 236.21 179.938C235.541 179.232 234.704 178.938 233.756 178.938Z" fill="white"/>
<path fill-rule="evenodd" clip-rule="evenodd" d="M213.477 135.148C219.038 131.762 229.13 127.773 225.919 121.908C222.708 116.044 210.899 116.895 205.338 120.281C199.778 123.667 193.845 133.618 197.055 139.483C200.266 145.348 207.916 138.533 213.477 135.148Z" fill="#FAFAFA"/>
<path fill-rule="evenodd" clip-rule="evenodd" d="M238.736 121.714C241.305 121.714 243.387 119.518 243.387 116.809C243.387 114.1 241.305 111.904 238.736 111.904C236.168 111.904 234.086 114.1 234.086 116.809C234.086 119.518 236.168 121.714 238.736 121.714Z" fill="#FAFAFA"/>
<path d="M403.027 325.132L404.461 326.645" stroke="#979797" stroke-linecap="square"/>
</svg>
