<svg width="14" height="14" viewBox="0 0 14 14" fill="none" xmlns="http://www.w3.org/2000/svg">
<path d="M2.95703 6.08594C4.08203 8.26562 5.73438 9.91797 7.91406 11.043L9.56641 9.39062C9.80078 9.15625 10.0586 9.09766 10.3398 9.21484C11.1836 9.49609 12.0742 9.63672 13.0117 9.63672C13.2227 9.63672 13.3984 9.70703 13.5391 9.84766C13.6797 9.98828 13.75 10.1641 13.75 10.375V13.0117C13.75 13.2227 13.6797 13.3984 13.5391 13.5391C13.3984 13.6797 13.2227 13.75 13.0117 13.75C9.49609 13.75 6.48438 12.5078 3.97656 10.0234C1.49219 7.51562 0.25 4.50391 0.25 0.988281C0.25 0.777344 0.320312 0.601562 0.460938 0.460938C0.601562 0.320312 0.777344 0.25 0.988281 0.25H3.625C3.83594 0.25 4.01172 0.320312 4.15234 0.460938C4.29297 0.601562 4.36328 0.777344 4.36328 0.988281C4.36328 1.92578 4.50391 2.81641 4.78516 3.66016C4.87891 3.96484 4.82031 4.22266 4.60938 4.43359L2.95703 6.08594Z" fill="#001C3E"/>
</svg>
