<svg width="50" height="50" viewBox="0 0 50 50" xmlns="http://www.w3.org/2000/svg" xmlns:xlink="http://www.w3.org/1999/xlink" fill="none" overflow="hidden"><defs><clipPath id="clip0"><rect x="0" y="0" width="50" height="50" fill="#FFFFFF"/></clipPath></defs><g clip-path="url(#clip0)"><path d="M45.9528 12.8741C45.9271 11.5242 45.9026 10.2489 45.9026 9.01517 45.9026 8.04864 45.1192 7.26505 44.1525 7.26505 36.6677 7.26505 30.9691 5.11402 26.219 0.495549 25.5395-0.1653 24.4582-0.165066 23.7789 0.495549 19.0293 5.11402 13.3315 7.26505 5.84729 7.26505 4.88075 7.26505 4.09716 8.04864 4.09716 9.01517 4.09716 10.2491 4.07289 11.5249 4.04699 12.875 3.8071 25.4377 3.47855 42.6428 24.4257 49.9035 24.6115 49.9679 24.8051 50.0001 24.9988 50.0001 25.1925 50.0001 25.3864 49.9679 25.5719 49.9035 46.5207 42.6426 46.1926 25.437 45.9528 12.8741ZM24.9991 46.3928C7.03411 39.8667 7.30573 25.5705 7.54678 12.9418 7.56124 12.1838 7.57525 11.4493 7.58505 10.7291 14.5949 10.4332 20.2004 8.30906 24.9991 4.12882 29.7981 8.30906 35.4046 10.4335 42.4149 10.7291 42.4247 11.449 42.4387 12.1831 42.4532 12.9406 42.694 25.5698 42.9654 39.8664 24.9991 46.3928Z" fill="#A1A1A7"/><path d="M31.0258 18.9207 22.5788 27.3673 18.9742 23.7627C18.2907 23.0795 17.1826 23.0795 16.4993 23.7627 15.8158 24.4464 15.8158 25.5544 16.4993 26.2379L21.3413 31.0799C21.683 31.4215 22.131 31.5923 22.5788 31.5923 23.0266 31.5923 23.4746 31.4215 23.8162 31.0799L33.5005 21.3958C34.1842 20.7124 34.1842 19.6042 33.5007 18.9209 32.8175 18.2374 31.7093 18.2372 31.0258 18.9207Z" fill="#A1A1A7"/></g></svg>