<svg width="140" height="24" viewBox="0 0 140 24" fill="none" xmlns="http://www.w3.org/2000/svg">
<path d="M12 15.9375L7.35938 18.75L8.58984 13.4766L4.51172 9.92578L9.89062 9.46875L12 4.51172L14.1094 9.46875L19.4883 9.92578L15.4102 13.4766L16.6406 18.75L12 15.9375Z" fill="#001C3E"/>
<path d="M41 15.9375L36.3594 18.75L37.5898 13.4766L33.5117 9.92578L38.8906 9.46875L41 4.51172L43.1094 9.46875L48.4883 9.92578L44.4102 13.4766L45.6406 18.75L41 15.9375Z" fill="#001C3E"/>
<path d="M70 15.9375L65.3594 18.75L66.5898 13.4766L62.5117 9.92578L67.8906 9.46875L70 4.51172L72.1094 9.46875L77.4883 9.92578L73.4102 13.4766L74.6406 18.75L70 15.9375Z" fill="#001C3E"/>
<path d="M99 15.9375L94.3594 18.75L95.5898 13.4766L91.5117 9.92578L96.8906 9.46875L99 4.51172L101.109 9.46875L106.488 9.92578L102.41 13.4766L103.641 18.75L99 15.9375Z" fill="#001C3E"/>
<path d="M128 14.5664L130.812 16.2539L130.074 13.0547L132.57 10.875L129.266 10.5938L128 7.57031L126.734 10.5938L123.43 10.875L125.926 13.0547L125.188 16.2539L128 14.5664ZM135.488 9.92578L131.41 13.4766L132.641 18.75L128 15.9375L123.359 18.75L124.59 13.4766L120.512 9.92578L125.891 9.46875L128 4.51172L130.109 9.46875L135.488 9.92578Z" fill="#001C3E"/>
</svg>
