<?xml version="1.0" encoding="UTF-8"?>
<svg width="236px" height="236px" viewBox="0 0 236 236" version="1.1" xmlns="http://www.w3.org/2000/svg" xmlns:xlink="http://www.w3.org/1999/xlink">
    <!-- Generator: Sketch 58 (84663) - https://sketch.com -->
    <title>x_icon</title>
    <desc>Created with Sketch.</desc>
    <g id="Page-1" stroke="none" stroke-width="1" fill="none" fill-rule="evenodd">
        <g id="play/ic_launcher_APP" transform="translate(-138.000000, -138.000000)">
            <g id="x_icon" transform="translate(138.000000, 138.000000)">
                <path d="M236,118 C236,183.17 183.17,236 118,236 C52.83,236 0,183.17 0,118 C0,52.83 52.83,0 118,0 C183.17,0 236,52.83 236,118" id="Fill-1" fill="#E31C1D"></path>
                <path d="M72.1445,168.0566 L138.3645,234.2436 C184.0585,226.2936 220.7285,192.0646 232.2295,147.6936 L162.5095,77.9966 L72.1445,168.0566 Z" id="Fill-3" fill="#BA171F"></path>
                <path d="M163.4155,152.1509 C153.9335,142.6689 144.4525,133.1879 134.9705,123.7059 L154.0405,104.6369 L163.4155,95.2609 C174.3505,84.3259 157.3845,67.3499 146.4445,78.2899 L117.9995,106.7349 L98.9305,87.6659 C95.8055,84.5409 92.6805,81.4159 89.5545,78.2899 C78.6195,67.3549 61.6445,84.3209 72.5845,95.2609 C82.0665,104.7429 91.5475,114.2239 101.0295,123.7059 L81.9595,142.7759 C78.8345,145.9009 75.7095,149.0259 72.5845,152.1509 C61.6495,163.0859 78.6145,180.0619 89.5545,169.1219 L117.9995,140.6769 L137.0695,159.7459 L146.4445,169.1219 C157.3805,180.0569 174.3555,163.0909 163.4155,152.1509" id="Fill-5" fill="#FFFFFF"></path>
            </g>
        </g>
    </g>
</svg>