<?xml version="1.0" encoding="UTF-8"?>
<svg width="48px" height="36px" viewBox="0 0 48 36" version="1.1" xmlns="http://www.w3.org/2000/svg" xmlns:xlink="http://www.w3.org/1999/xlink">
    <!-- Generator: Sketch 58 (84663) - https://sketch.com -->
    <title>delivery_icon</title>
    <desc>Created with Sketch.</desc>
    <g id="Page-1" stroke="none" stroke-width="1" fill="none" fill-rule="evenodd" stroke-linecap="round" stroke-linejoin="round">
        <g id="delivery_icon" transform="translate(-11.000000, -17.000000)" stroke="#A2A1A8" stroke-width="3">
            <g transform="translate(12.000000, 18.000000)">
                <path d="M40.3777778,28.1111111 C40.3777778,30.9344889 38.0900444,33.2222222 35.2666667,33.2222222 C32.4432889,33.2222222 30.1555556,30.9344889 30.1555556,28.1111111 C30.1555556,25.2887556 32.4432889,23 35.2666667,23 C38.0900444,23 40.3777778,25.2887556 40.3777778,28.1111111 Z" id="Stroke-1"></path>
                <path d="M16.8666667,28.1111111 C16.8666667,30.9344889 14.5789333,33.2222222 11.7555556,33.2222222 C8.93217778,33.2222222 6.64444444,30.9344889 6.64444444,28.1111111 C6.64444444,25.2887556 8.93217778,23 11.7555556,23 C14.5789333,23 16.8666667,25.2887556 16.8666667,28.1111111 Z" id="Stroke-3"></path>
                <polyline id="Stroke-5" points="40.3777778 28.1111111 45.4888889 28.1111111 45.4888889 16.8666667 35.7777778 7.15555556 25.0444444 7.15555556 25.0444444 28.1111111 30.1555556 28.1111111"></polyline>
                <path d="M0.511111111,28.1111111 L6.64444444,28.1111111" id="Stroke-7"></path>
                <path d="M25.0444444,7.15555556 L25.0444444,4.6 C25.0444444,2.34191111 23.2136444,0.511111111 20.9555556,0.511111111 L0.511111111,0.511111111" id="Stroke-9"></path>
                <path d="M25.0444444,28.1111111 L16.8666667,28.1111111" id="Stroke-11"></path>
                <path d="M0.511111111,8.68888889 L12.7777778,8.68888889" id="Stroke-13"></path>
                <path d="M0.511111111,13.8 L9.71111111,13.8" id="Stroke-15"></path>
            </g>
        </g>
    </g>
</svg>