<?xml version="1.0" encoding="UTF-8"?>
<svg width="50px" height="36px" viewBox="0 0 50 36" version="1.1" xmlns="http://www.w3.org/2000/svg" xmlns:xlink="http://www.w3.org/1999/xlink">
    <!-- Generator: Sketch 58 (84663) - https://sketch.com -->
    <title>modalidad-pago_icon</title>
    <desc>Created with Sketch.</desc>
    <g id="Page-1" stroke="none" stroke-width="1" fill="none" fill-rule="evenodd" stroke-linecap="round" stroke-linejoin="round">
        <g id="modalidad-pago_icon" transform="translate(-10.000000, -17.000000)" stroke="#A2A1A8" stroke-width="3">
            <g transform="translate(12.000000, 19.000000)">
                <path d="M42.0192308,32.2884615 L10.1730769,32.2884615 C8.21896154,32.2884615 6.63461538,30.7041154 6.63461538,28.75 L6.63461538,9.28846154 C6.63461538,7.33434615 8.21896154,5.75 10.1730769,5.75 L42.0192308,5.75 C43.9733462,5.75 45.5576923,7.33434615 45.5576923,9.28846154 L45.5576923,28.75 C45.5576923,30.7041154 43.9733462,32.2884615 42.0192308,32.2884615 Z" id="Stroke-1"></path>
                <path d="M6.63461538,12.8269231 L45.5576923,12.8269231" id="Stroke-3"></path>
                <path d="M6.63461538,19.0192308 L45.5576923,19.0192308" id="Stroke-5"></path>
                <path d="M16.7700654,25.2115385 L36.3359885,25.2115385" id="Stroke-9" stroke-dasharray="1.882,6.588"></path>
                <path d="M6.63461538,12.8269231 L6.63461538,9.28846154 C6.63461538,7.33434615 8.21896154,5.75 10.1730769,5.75 L39.3653846,5.75 L39.3653846,3.98076923 C39.3653846,2.02665385 37.7810385,0.442307692 35.8269231,0.442307692 L3.98076923,0.442307692 C2.02665385,0.442307692 0.442307692,2.02665385 0.442307692,3.98076923 L0.442307692,23.4423077 C0.442307692,25.3964231 2.02665385,26.9807692 3.98076923,26.9807692 L6.63461538,26.9807692 L6.63461538,19.0192308 L6.63461538,12.8269231 Z" id="Stroke-13"></path>
            </g>
        </g>
    </g>
</svg>