<?xml version="1.0" encoding="UTF-8"?>
<svg width="44px" height="49px" viewBox="0 0 44 49" version="1.1" xmlns="http://www.w3.org/2000/svg" xmlns:xlink="http://www.w3.org/1999/xlink">
    <!-- Generator: Sketch 58 (84663) - https://sketch.com -->
    <title>seguridad_icon</title>
    <desc>Created with Sketch.</desc>
    <g id="Page-1" stroke="none" stroke-width="1" fill="none" fill-rule="evenodd" stroke-linecap="round" stroke-linejoin="round">
        <g id="seguridad_icon" transform="translate(-13.000000, -9.000000)" stroke="#A1A0A7">
            <g transform="translate(15.000000, 11.000000)">
                <g id="Group" transform="translate(12.000000, 13.000000)" stroke-width="2">
                    <path d="M13.7496471,19.8869647 L2.82258824,19.8869647 C1.264,19.8869647 3.90798505e-14,18.6239059 3.90798505e-14,17.0643765 L3.90798505e-14,10.2803765 C3.90798505e-14,8.72178824 1.264,7.45778824 2.82258824,7.45778824 L13.7496471,7.45778824 C15.3082353,7.45778824 16.5722353,8.72178824 16.5722353,10.2803765 L16.5722353,17.0643765 C16.5722353,18.6239059 15.3082353,19.8869647 13.7496471,19.8869647 Z" id="Stroke-1"></path>
                    <path d="M13.1180235,7.45788235 L3.45496471,7.45788235 C2.91943529,7.45788235 2.48649412,7.024 2.48649412,6.48941176 L2.48649412,5.24235294 C2.48649412,2.34729412 4.83284706,-1.16351373e-13 7.72884706,-1.16351373e-13 L8.84508235,-1.16351373e-13 C11.7392,-1.16351373e-13 14.0864941,2.34729412 14.0864941,5.24235294 L14.0864941,6.48941176 C14.0864941,7.024 13.6526118,7.45788235 13.1180235,7.45788235 Z" id="Stroke-3"></path>
                    <path d="M8.28630588,12.4294588 L8.28630588,15.1748706" id="Stroke-5"></path>
                </g>
                <path d="M20.0120122,45 C46.3071082,36.5737518 39.0950081,7.18404945 39.0950081,7.18404945 C27.5806332,6.400024 20.262826,0.234037446 20.0120122,0.0198031685 L20.0120122,0 C20.0120122,0 20.0014415,0.00900144023 20.0004805,0.00990158425 C19.9985585,0.00900144023 19.9879878,0 19.9879878,0 L19.9879878,0.0198031685 C19.737174,0.234037446 12.4193668,6.400024 0.904991929,7.18404945 C0.904991929,7.18404945 -6.3071082,36.5737518 19.9879878,45" id="Stroke-7" stroke-width="3"></path>
            </g>
        </g>
    </g>
</svg>